<svg xmlns="http://www.w3.org/2000/svg" width="48" height="48" fill="none">
  <mask id="a" width="48" height="48" x="0" y="0" maskUnits="userSpaceOnUse" style="mask-type:luminance">
    <path fill="#fff" d="M0 0h48v48H0V0Z"/>
  </mask>
  <g mask="url(#a)">
    <mask id="b" width="48" height="48" x="0" y="0" maskUnits="userSpaceOnUse" style="mask-type:luminance">
      <path fill="#fff" d="M24 0C10.745 0 0 10.745 0 24s10.745 24 24 24c13.254 0 24-10.745 24-24S37.254 0 24 0Z"/>
    </mask>
    <g mask="url(#b)">
      <path fill="#fff" d="M0 0h48v48H0V0Z"/>
    </g>
  </g>
  <mask id="c" width="48" height="48" x="0" y="0" maskUnits="userSpaceOnUse" style="mask-type:luminance">
    <path fill="#fff" d="M0 0h48v48H0V0Z"/>
  </mask>
  <g mask="url(#c)">
    <path fill="#052756" d="M24 48C10.77 48 0 37.23 0 24S10.77 0 24 0c13.229 0 24 10.77 24 24S37.228 48 24 48ZM24 .355C10.96.355.354 10.96.354 24S10.96 47.645 24 47.645c13.04 0 23.645-10.605 23.645-23.645S37.04.355 24 .355Z"/>
  </g>
  <mask id="d" width="37" height="36" x="5" y="6" maskUnits="userSpaceOnUse" style="mask-type:luminance">
    <path fill="#fff" d="M5.782 6.363H41.23v35.448H5.782V6.363Z"/>
  </mask>
  <g mask="url(#d)">
    <mask id="e" width="48" height="48" x="0" y="0" maskUnits="userSpaceOnUse" style="mask-type:luminance">
      <path fill="#fff" d="M.063 15.628 32.01.53 47.11 32.479 15.16 47.577.062 15.628Z"/>
    </mask>
    <g mask="url(#e)">
      <mask id="f" width="48" height="48" x="0" y="0" maskUnits="userSpaceOnUse" style="mask-type:luminance">
        <path fill="#fff" d="M.063 15.628 32.01.53 47.11 32.479 15.16 47.577.062 15.628Z"/>
      </mask>
      <g mask="url(#f)">
        <path fill="#052756" d="M31.316 39.867a17.65 17.65 0 0 0 5.448-4.15 17.804 17.804 0 0 0 3.453-5.88 17.708 17.708 0 0 0 .974-6.73 17.47 17.47 0 0 0-1.657-6.588 17.479 17.479 0 0 1 1.65 6.592 17.146 17.146 0 0 1-1.03 6.71 17.183 17.183 0 0 1-3.53 5.776 17.146 17.146 0 0 1-5.474 3.94 17.254 17.254 0 0 1-6.53 1.528 17.246 17.246 0 0 1-6.573-1.076 17.056 17.056 0 0 1-5.654-3.467 17.231 17.231 0 0 1-3.917-5.327 17.19 17.19 0 0 1-1.628-6.407c-.12-2.216.193-4.46.914-6.563a17.35 17.35 0 0 1 3.342-5.761 17.148 17.148 0 0 1 11.85-5.813c2.26-.141 4.556.183 6.711.936a17.366 17.366 0 0 1 5.838 3.464 17.312 17.312 0 0 1 4.045 5.46 17.46 17.46 0 0 0-4.038-5.464 17.736 17.736 0 0 0-5.817-3.52 17.658 17.658 0 0 0-6.735-1.064 17.66 17.66 0 0 0-12.29 5.586 17.752 17.752 0 0 0-3.65 5.897 17.718 17.718 0 0 0-1.09 6.877c.102 2.335.681 4.658 1.68 6.774a17.595 17.595 0 0 0 10.18 9.118 17.669 17.669 0 0 0 6.872.925 17.515 17.515 0 0 0 6.656-1.773Z"/>
      </g>
    </g>
  </g>
  <mask id="g" width="35" height="34" x="6" y="7" maskUnits="userSpaceOnUse" style="mask-type:luminance">
    <path fill="#fff" d="M6.838 7.419h33.487v33.336H6.838V7.419Z"/>
  </mask>
  <g mask="url(#g)">
    <mask id="h" width="38" height="38" x="5" y="5" maskUnits="userSpaceOnUse" style="mask-type:luminance">
      <path fill="#fff" d="m5.114 9.51 33.003-3.923 3.924 33.002-33.003 3.924L5.114 9.511Z"/>
    </mask>
    <g mask="url(#h)">
      <mask id="i" width="35" height="34" x="6" y="7" maskUnits="userSpaceOnUse" style="mask-type:luminance">
        <path fill="#fff" d="M21.616 7.549c-9.114 1.083-15.623 9.35-14.54 18.463 1.083 9.113 9.35 15.623 18.463 14.54 9.114-1.084 15.623-9.35 14.54-18.464-1.084-9.113-9.35-15.623-18.463-14.54Z"/>
      </mask>
      <g mask="url(#i)">
        <mask id="j" width="38" height="38" x="5" y="5" maskUnits="userSpaceOnUse" style="mask-type:luminance">
          <path fill="#fff" d="m5.114 9.51 33.003-3.923 3.924 33.002-33.003 3.924L5.114 9.511Z"/>
        </mask>
        <g mask="url(#j)">
          <mask id="k" width="38" height="38" x="5" y="5" maskUnits="userSpaceOnUse" style="mask-type:luminance">
            <path fill="#fff" d="m5.114 9.51 33.003-3.923 3.924 33.002-33.003 3.924L5.114 9.511Z"/>
          </mask>
          <g mask="url(#k)">
            <path fill="url(#l)" d="m1.87 6.955 4.613 38.803 38.802-4.613-4.613-38.803L1.869 6.955Z"/>
          </g>
        </g>
      </g>
    </g>
  </g>
  <mask id="m" width="35" height="27" x="10" y="10" maskUnits="userSpaceOnUse" style="mask-type:luminance">
    <path fill="#fff" d="M10.76 10.587h33.637v26.246H10.76V10.587Z"/>
  </mask>
  <g mask="url(#m)">
    <mask id="n" width="40" height="40" x="7" y="2" maskUnits="userSpaceOnUse" style="mask-type:luminance">
      <path fill="#fff" d="m21.22 2.519 24.813 13.695-14.22 25.764L7 28.282 21.22 2.52Z"/>
    </mask>
    <g mask="url(#n)">
      <mask id="o" width="40" height="40" x="7" y="2" maskUnits="userSpaceOnUse" style="mask-type:luminance">
        <path fill="#fff" d="m21.22 2.519 24.813 13.695-14.22 25.764L7 28.282 21.22 2.52Z"/>
      </mask>
      <g mask="url(#o)">
        <path fill="#052756" d="M13.252 31.736a7.422 7.422 0 0 0-.15-.123c-.226-.185-.388-.522-.416-.87a2.39 2.39 0 0 0-.034-.232c-.066-.31-.023-.52.161-.793.136-.203.255-.329.465-.49a2.95 2.95 0 0 1 .373-.236l.042-.024-.02-.027a.2.2 0 0 1-.023-.089l-.004-.062-.089-.045a1.093 1.093 0 0 1-.155-.097 10.704 10.704 0 0 0-.403-.267c-.872-.559-1.674-1.128-1.936-1.373-.146-.136-.15-.145-.166-.24a.746.746 0 0 0-.036-.137.282.282 0 0 1-.02-.105c.011-.21.29-1.234.487-1.79.18-.508.333-.837.613-1.325.358-.624.64-1.01.75-1.035.058-.013.081.008.057.052l-.02.034.05.005a.714.714 0 0 1 .318.204c.034.048.036.06.018.085-.01.016-.016.03-.011.034.005.003.038.07.074.15.123.275.26.436.494.58.479.294.983.346 1.39.143.18-.09.317-.202.432-.353.14-.185.34-.63.353-.786.002-.023.008-.062.013-.088.026-.124-.01-.36-.092-.625-.056-.18-.06-.189-.192-.348-.116-.142-.19-.217-.239-.243-.02-.011-.094-.053-.165-.091-.204-.115-.307-.152-.482-.173-.26-.031-.382-.012-.575.088a.532.532 0 0 0-.114.076c-.046.047-.079.053-.158.028-.107-.032-.152-.063-.157-.102l-.016-.15c-.01-.08-.022-.126-.04-.146a.636.636 0 0 1-.029-.031l.089-.18c.106-.213.314-.548.465-.752.288-.389.708-.843.976-1.055.105-.084.114-.094.365-.438.142-.193.316-.443.387-.556.159-.25.475-.845.573-1.078.143-.34.228-.596.215-.654-.008-.038-.012-.042-.094-.076l-.085-.037-.252.043-.272.046a.229.229 0 0 1-.078-.018 1.156 1.156 0 0 0-.128-.035c-.097-.021-.421-.187-.564-.29-.383-.272-.476-.496-.44-1.062.014-.2.039-.315.098-.44.023-.05.063-.141.086-.2.053-.128.153-.273.273-.394.348-.35.888-.514 1.402-.427.175.03.263.063.43.165.125.075.173.112.298.23.082.077.192.195.245.26.087.109.103.124.188.17.128.07.197.08.293.044l.076-.03.315-.584c.422-.783.575-1.134.8-1.827.09-.274.226-.78.227-.84 0-.037.05-.074.1-.073.09.003.496.12.75.216.408.155 1.166.52 1.919.926l.49.264.053.075c.035.05.058.103.069.159l.016.082-.07.146c-.078.159-.1.185-.202.235-.07.036-.221.16-.318.263-.057.06-.12.148-.199.272-.168.264-.176.283-.166.385.012.12.081.331.153.466.142.267.458.631.673.777a.383.383 0 0 0 .186.073c.061.012.194.025.294.031.273.014.45-.036.656-.188.154-.113.278-.273.306-.393a3.34 3.34 0 0 1 .066-.228c.048-.152.073-.287.078-.429a.895.895 0 0 1 .028-.159.392.392 0 0 0 .017-.138c-.024-.123.033-.209.178-.264.067-.026.156-.022.192.01.016.013.08.04.14.064.22.08.413.173.933.453.554.297.729.402 1.109.667.298.208.704.515.8.607.033.03.089.075.123.1.081.056.097.093.084.192a3.501 3.501 0 0 0-.016.242c-.01.273-.02.354-.049.43-.015.04-.044.12-.063.177-.068.205-.289.683-.525 1.14l-.14.272-.16.009-.16.009.029-.053c.216-.396.5-.986.626-1.305.133-.335.288-.818.3-.933.006-.048.005-.05-.08-.114a13.322 13.322 0 0 0-1.045-.788c-.528-.36-1.414-.842-1.876-1.02-.176-.067-.197-.069-.243-.016-.035.042-.035.042-.008.15a1.265 1.265 0 0 1-.155.955 1.007 1.007 0 0 1-.187.267 1.39 1.39 0 0 1-.67.385c-.1.02-.342.022-.375.004a.34.34 0 0 0-.095 0c-.255.025-.422-.047-.673-.294-.322-.316-.523-.628-.607-.94-.101-.376-.032-.67.232-.98.129-.15.369-.355.523-.443l.075-.044.034-.092c.029-.078.032-.1.017-.14-.018-.054-.035-.07-.08-.07-.018 0-.167-.073-.412-.205-.708-.38-1.438-.743-1.804-.894-.316-.13-.709-.254-.723-.228a.871.871 0 0 0-.024.108c-.075.42-.334 1.183-.604 1.783-.115.255-.664 1.271-.725 1.341a.242.242 0 0 1-.093.059c-.197.065-.19.064-.311.038a.557.557 0 0 1-.243-.1c-.113-.069-.128-.08-.152-.13-.03-.057-.142-.178-.31-.335a1.124 1.124 0 0 0-.29-.199c-.172-.095-.19-.103-.295-.122-.538-.1-1.071.1-1.374.513a.422.422 0 0 0-.08.143 1.25 1.25 0 0 1-.086.194.737.737 0 0 0-.095.253c-.046.26.01.544.144.743.123.181.239.29.473.448.167.112.322.185.42.2.102.015.227.001.414-.045.09-.023.167-.04.171-.037l.075.034c.036.018.102.047.147.067l.081.035v.044a2.85 2.85 0 0 1-.135.53c-.103.299-.19.494-.388.867a6.778 6.778 0 0 1-.638 1.02c-.117.16-.23.314-.25.344l-.038.053.08.025c.167.052.706.285 1.153.499.243.116 1.7.932 1.81 1.015a.21.21 0 0 1 .093.122.478.478 0 0 1-.016.413.342.342 0 0 1-.12.132c-.05.036-.091.057-.105.054-.026-.006-.235.136-.406.277-.281.232-.524.582-.566.817-.039.215.002.47.114.724.062.137.219.36.323.455.13.119.332.228.56.301l.203.067c.03.011.2 0 .292-.018.154-.03.334-.168.52-.398.135-.165.414-.65.468-.81.064-.195.106-.5.07-.52-.025-.014-.031-.07-.012-.118a.608.608 0 0 1 .204-.22.31.31 0 0 0 .077-.06c.019-.036.106-.05.18-.031.037.009.163.062.281.118.522.248 1.147.693 1.756 1.248.204.186.654.616.721.69.03.032.06.057.067.054a.468.468 0 0 0 .072-.08c.033-.042.164-.199.29-.35.438-.522.516-.635.815-1.176a7.52 7.52 0 0 0 .425-.876c.082-.2.218-.569.215-.582-.002-.003-.02-.008-.041-.011-.177-.025-.555-.192-.813-.36-.285-.186-.452-.34-.59-.543a.742.742 0 0 1-.114-.254.811.811 0 0 1-.017-.44c.028-.155.091-.31.195-.479.196-.317.44-.498.83-.61.402-.115.79-.093 1.134.063.034.016.058.031.054.035a5.334 5.334 0 0 1-.292.046c-.156.021-.325.05-.375.061-.05.012-.154.028-.229.034a3.183 3.183 0 0 0-.58.106.759.759 0 0 0-.36.257 1.64 1.64 0 0 0-.188.435c-.094.452.102.802.651 1.165.171.113.424.243.597.307.15.055.186.062.24.046.025-.007.052-.01.061-.004.018.01.019.268.002.42-.012.115-.112.416-.22.664a12.732 12.732 0 0 1-.746 1.324c-.204.286-.53.662-.718.83l-.044.039.04.013c.021.008.118.037.214.067.366.11.951.346 1.563.628.632.292 1.407.706 1.464.783.02.027.038.13.046.265.003.055-.002.086-.016.101a9.717 9.717 0 0 0-.21.248c-.035.043-.12.073-.155.054-.032-.017-.145.031-.259.112-.13.091-.257.226-.37.393a.986.986 0 0 0-.19.715c.048.58.315.967.858 1.237.25.125.445.16.633.113.16-.04.323-.162.531-.397.291-.33.466-.622.498-.833a1.928 1.928 0 0 0-.019-.457c-.017-.061-.017-.063.013-.063.038.001.072.032.13.118.08.124.097.277.05.474-.028.113-.19.404-.312.562-.484.621-.818.807-1.298.723-.265-.047-.606-.23-.837-.45a1.266 1.266 0 0 1-.37-.617 1.595 1.595 0 0 1-.075-.52.894.894 0 0 1 .143-.51c.102-.18.197-.302.343-.436.154-.143.36-.257.488-.271.057-.006.064-.012.13-.091.04-.047.084-.096.1-.11.026-.02.028-.034.02-.132-.008-.11-.008-.11-.058-.14a1.86 1.86 0 0 1-.122-.085c-.204-.157-1.227-.667-1.93-.965a9.33 9.33 0 0 0-1.057-.387c-.217-.059-.196-.06-.29.031-.047.044-.14.135-.208.201-.334.323-.658.765-1.068 1.458-.221.375-.58 1.038-.617 1.14-.014.04-.012.052.02.091.049.064.163.162.272.236.092.06.096.062.189.068.11.006.329.06.52.128.194.07.659.325.766.421a.922.922 0 0 1 .232.341c.072.206.053.507-.05.8a2.47 2.47 0 0 1-.314.553c-.335.387-.792.61-1.19.578a1.084 1.084 0 0 1-.486-.161 1.567 1.567 0 0 1-.466-.374c-.183-.203-.267-.351-.277-.49-.004-.065-.009-.076-.032-.076-.015-.001-.096-.013-.182-.028a2.18 2.18 0 0 0-.191-.028c-.065-.002-.141.087-.347.404-.031.048-.165.283-.299.525-.369.666-.39.73-.608 1.695-.043.187-.08.36-.082.386-.006.05.02.097.08.146.022.018.062.06.09.096.144.18.605.564 1.106.92.405.288 1.03.643 1.134.646a.25.25 0 0 1 .12.043c.046.029.154.068.32.12.288.089.255.095.355-.064l.064-.103-.051-.086a.862.862 0 0 1-.11-.393 1.427 1.427 0 0 1 .056-.588c.027-.09.058-.153.204-.417.167-.3.177-.315.263-.404.101-.106.262-.226.39-.291.19-.098.482-.155.72-.139.257.017.472.088.82.269.285.148.42.243.516.362a.401.401 0 0 0 .084.081c.051.028.139.173.18.3.097.291.096.672-.001 1.019a2.265 2.265 0 0 1-.322.633 1.272 1.272 0 0 1-.652.457 1.129 1.129 0 0 1-.204.039.562.562 0 0 0-.106.013c-.024.01-.18.326-.181.37-.003.031.01.048.09.121.05.045.16.134.245.197.323.235.465.323 1.114.68.586.323.643.352.832.426.458.18.88.29 1.26.331.125.014.135.012.168-.029l.118-.145a.818.818 0 0 0 .108-.158.452.452 0 0 1 .089-.122c.092-.098.157-.188.343-.471.19-.288.683-1.197.8-1.476.15-.35.222-.543.258-.681.02-.079.019-.082-.024-.141-.04-.057-.049-.063-.12-.087-.18-.06-.308-.065-.362-.011-.069.068-.25.146-.397.17-.27.046-.499-.007-.686-.156-.213-.172-.513-.556-.676-.866-.17-.325-.222-.62-.157-.89.024-.098.13-.299.205-.386.422-.49 1.1-.654 1.802-.438.242.075.598.296.7.434a.325.325 0 0 0 .047.056c.027.007.049.047.098.176l.05.138.06.025c.032.013.11.04.173.058l.115.032.136-.138c.303-.31.526-.573.716-.847.119-.17.548-.974.646-1.207a5.27 5.27 0 0 0 .295-.861l.024-.117-.132-.12a7.911 7.911 0 0 0-.663-.53c-.524-.38-.847-.587-1.354-.868a5.686 5.686 0 0 1-.388-.224 1.02 1.02 0 0 1 .127-.014l.117-.008.165.084c.57.288 1.554.951 2.054 1.385.114.099.14.117.177.122.041.006.044.01.054.063.006.03.006.071.001.09a.074.074 0 0 0 .01.058c.038.052.035.405-.005.525l-.091.282a4.416 4.416 0 0 1-.255.661 5.17 5.17 0 0 1-.477.786l-.175.238a3.171 3.171 0 0 1-.337.402c-.21.225-.504.493-.598.549-.08.047-.145.054-.253.028a2.778 2.778 0 0 1-.417-.153l-.086-.04-.004-.051c-.006-.087-.075-.239-.165-.366l-.085-.121-.213-.116c-.241-.13-.372-.178-.558-.201-.41-.051-.697.036-1.012.306a.571.571 0 0 0-.18.228.689.689 0 0 0-.1.264c-.04.2-.04.239.001.365.068.21.192.434.375.675.434.571.676.678 1.13.503.081-.032.168-.073.194-.092.08-.061.209-.062.413-.003.142.043.202.087.238.174.027.07.045.235.04.372a.95.95 0 0 1-.081.366 2.811 2.811 0 0 0-.101.274c-.13.412-.296.75-.59 1.192l-.236.356a6.178 6.178 0 0 1-.448.574c-.1.11-.36.366-.398.392a.556.556 0 0 1-.115.047c-.154.046-.557.007-.948-.091-.323-.081-.624-.202-1.113-.446-.335-.167-1.117-.608-1.25-.705a12.24 12.24 0 0 0-.447-.3l-.091-.058.01-.135c.005-.074.006-.17.003-.212-.013-.133-.008-.147.11-.363.128-.23.146-.246.261-.243.08.003.16-.02.228-.065a2.02 2.02 0 0 1 .16-.086c.223-.108.365-.244.54-.515.092-.145.117-.192.158-.301.112-.3.134-.692.056-1.016-.026-.106-.029-.113-.057-.106-.028.006-.031.003-.052-.055-.024-.07-.172-.237-.294-.33-.25-.19-.675-.394-.941-.449-.074-.015-.099-.012-.215.024-.279.087-.513.242-.761.504-.065.068-.133.139-.151.156a1.687 1.687 0 0 0-.134.217c-.163.295-.199.445-.173.728.006.074.012.16.013.193 0 .032.01.082.02.11.01.027.016.073.01.1a.206.206 0 0 0 0 .078c.005.018-.004.056-.03.114-.02.047-.053.152-.073.233-.02.08-.042.157-.05.169l-.036.063c-.038.066-.114.086-.236.061-.099-.02-.359-.11-.647-.224a5.619 5.619 0 0 1-.862-.46 3.22 3.22 0 0 0-.309-.194 5.25 5.25 0 0 1-1.082-.802 2.646 2.646 0 0 0-.223-.19 4.092 4.092 0 0 1-.227-.181c-.102-.09-.125-.104-.475-.296-.395-.217-.624-.361-.765-.483a2.945 2.945 0 0 0-.232-.171 9.02 9.02 0 0 1-.916-.686 10.11 10.11 0 0 0-.292-.243.998.998 0 0 1-.147-.133c-.02-.036-.061-.06-.089-.052-.04.011-.054.065-.044.164.013.14.013.469 0 .619-.026.288-.093.492-.26.796-.104.19-.156.261-.285.388-.133.13-.16.151-.27.208-.25.13-.46.143-.762.05a2.507 2.507 0 0 1-.612-.317h.001Zm.8.08a.56.56 0 0 0 .467-.05c.126-.086.161-.132.297-.378.283-.518.418-1.04.378-1.465-.01-.118-.039-.235-.063-.264a.107.107 0 0 1-.017-.057c0-.035.005-.039.07-.065a.903.903 0 0 1 .181-.043c.108-.014.112-.014.183.028.04.023.153.107.253.187s.322.251.494.382l.48.365c.32.246.447.332 1.113.761.135.087.327.213.427.279.1.065.183.118.185.118.003 0 .027-.093.053-.206l.119-.492a4.21 4.21 0 0 0 .073-.344c.005-.06.057-.235.133-.442.102-.275.603-1.165.804-1.428.119-.155.221-.24.31-.257a.528.528 0 0 1 .186 0 3.9 3.9 0 0 0 .164.033c.166.03.188.043.232.144.043.098.203.325.323.458.175.193.275.272.486.381.16.083.193.096.286.112.303.054.635-.075.922-.356.116-.114.172-.19.273-.374.095-.172.151-.315.186-.47.084-.388.01-.652-.244-.87-.083-.072-.124-.097-.347-.214-.359-.186-.556-.254-.855-.292-.146-.018-.159-.022-.224-.067-.183-.127-.344-.305-.35-.386-.003-.038.025-.093.312-.622.4-.736.635-1.116.938-1.516.195-.258.448-.532.678-.736a.478.478 0 0 0 .086-.088c0-.006-.014-.015-.03-.02a.86.86 0 0 1-.165-.14c-.675-.667-1.192-1.105-1.725-1.463-.19-.128-.749-.438-.775-.43-.011.004-.03 0-.041-.005-.044-.025-.101-.014-.156.028-.073.057-.08.074-.056.133.04.096.014.363-.057.588-.047.148-.3.608-.434.787-.252.335-.47.505-.767.597-.155.048-.252.055-.323.023a.826.826 0 0 0-.137-.041c-.297-.062-.601-.208-.773-.373-.347-.331-.53-.851-.446-1.266.05-.247.29-.6.575-.844.217-.188.553-.4.614-.388.03.006.029.009.06-.101.032-.107.03-.227-.003-.29a.181.181 0 0 0-.083-.08c-.04-.022-.06-.04-.059-.053 0-.019-.116-.086-.811-.473-.557-.31-.867-.477-.991-.533-.432-.197-.623-.28-.805-.354-.277-.111-.349-.133-.38-.117-.068.036-.38.349-.592.59-.301.343-.64.84-.804 1.179l-.071.147.11.057.109.059.155-.052a1.32 1.32 0 0 1 .845-.004 2.6 2.6 0 0 1 .513.281c.237.205.39.438.471.713.088.303.077.616-.033.984-.034.112-.058.164-.17.37-.092.164-.148.258-.185.298-.428.479-1.067.641-1.697.431a1.975 1.975 0 0 1-.33-.157c-.186-.104-.226-.13-.289-.191-.213-.21-.332-.437-.317-.612.006-.077.004-.085-.036-.122a1.321 1.321 0 0 0-.3-.171c-.058.004-.646.986-.834 1.392-.202.44-.367.901-.55 1.543-.101.353-.233.893-.23.943 0 .029.132.198.228.295.258.263.84.705 1.436 1.093.44.287 1.088.66 1.221.702.025.008.044.021.05.037a.81.81 0 0 1-.023.307c-.013.032-.02.06-.014.064.024.013-.022.051-.095.077-.209.074-.546.318-.729.528a1.76 1.76 0 0 0-.271.464c-.111.397.126.986.562 1.396.182.171.474.355.646.408Zm-.924-.938c-.135-.236-.182-.369-.199-.556-.023-.267.067-.484.284-.682.086-.08.174-.12.185-.086.004.017-.014.041-.083.115-.23.237-.29.422-.244.744.023.163.096.422.143.505.032.056.032.095-.001.087a.695.695 0 0 1-.085-.127Zm1.382.472a.829.829 0 0 1 .058-.065c.04-.042.091-.124.21-.339.173-.31.225-.388.269-.4.063-.019.05.019-.108.304-.149.27-.149.27-.258.38-.06.063-.12.12-.132.128-.024.015-.049.01-.038-.008h-.001Zm-.2-1.49c0-.014.442-.124.47-.116.037.01.004.028-.108.055-.189.047-.362.076-.362.062Zm-.264-.194c.01-.018.332-.109.54-.151.09-.018.187-.04.216-.05.06-.02.075-.015.059.013-.027.05-.235.108-.504.144a1.99 1.99 0 0 0-.197.04c-.113.027-.127.028-.114.004Zm3.682 1.38a3.36 3.36 0 0 1-.225-.171 27.16 27.16 0 0 0-.791-.627c-.246-.187-.681-.54-.805-.65-.068-.06-.1-.123-.08-.158.015-.028.045-.016.11.044.075.073.266.224.693.552.837.644 1.124.883 1.171.979.01.02.026.044.034.054.016.018.012.04-.007.039a.828.828 0 0 1-.1-.061Zm.548.138c.01-.018.05-.019.055-.001.003.012-.04.031-.054.023-.005-.003-.006-.012 0-.022Zm-4.092-2.423c.026-.086.048-.12.082-.121.019-.001.028.005.035.023.009.022.003.038-.034.09-.046.063-.08.095-.096.086-.005-.002.001-.038.013-.078Zm.971.56c-.007-.022.032-.059.079-.075a.361.361 0 0 1 .198.013c.04.022.034.043-.01.037a.59.59 0 0 0-.135.026c-.112.032-.123.032-.132 0Zm3.21 1.663c.01-.057.013-.13.007-.281-.013-.348.07-.604.37-1.15.227-.415.504-.84.71-1.09.194-.236.294-.32.311-.26.004.015-.017.048-.087.134-.114.138-.24.314-.434.607-.18.274-.537.91-.609 1.09-.084.207-.159.513-.194.794a.79.79 0 0 1-.033.169c-.02.023-.048.015-.042-.013Zm-5.037-2.924c-.31-.201-.392-.256-.51-.34a7.547 7.547 0 0 1-.785-.63 10.025 10.025 0 0 0-.243-.219c-.094-.08-.165-.159-.157-.173.003-.005.016-.011.03-.014.039-.007.144.07.415.31.5.44.87.71 1.49 1.09.323.2.463.298.447.318-.015.017.008.027-.386-.178a7.248 7.248 0 0 1-.301-.164Zm-2.096-1.67c-.029-.11 0-.221.07-.274.03-.022.077-.02.083.004a.548.548 0 0 1-.055.13c-.055.11-.058.118-.045.166.013.046 0 .075-.023.061a.33.33 0 0 1-.03-.086Zm.995.099a.276.276 0 0 1 .096-.023c.05-.006.173-.025.274-.043.208-.035.488-.061.827-.076.33-.015.486-.027.625-.048a.423.423 0 0 1 .138-.005c.007.007.007.016-.002.02-.028.015-.852.126-1.086.146-.13.012-.341.035-.471.052-.128.017-.257.03-.284.03-.053-.002-.127-.036-.117-.053Zm-.468-.44c.011-.021.027-.027.06-.024.024.003.13-.01.236-.029.19-.033.558-.076 1.274-.148.736-.075 1.36-.115 1.368-.09.003.011-.02.02-.063.024-.24.024-1.008.109-1.386.153-.245.029-.585.067-.755.085-.17.018-.395.044-.502.06-.205.028-.26.02-.232-.031Zm-.347-.304.018-.088a6.629 6.629 0 0 1 .255-1.226c.123-.375.442-.945.777-1.393l.143-.193c.039-.054.087-.077.095-.047.01.032-.052.147-.186.342-.168.246-.493.812-.594 1.034a5.762 5.762 0 0 0-.326 1.02c-.05.226-.123.511-.14.546-.014.03-.048.034-.042.005Zm9.587 3.296c-.08-.068-.195-.232-.204-.288-.008-.048.01-.09.043-.096.018-.003.029.01.052.063a.68.68 0 0 0 .152.22c.121.126.23.216.315.263.092.05.105.066.072.08-.028.01-.343-.166-.43-.242Zm-.927-.809c-.002-.042.153-.072.256-.05.064.015.114.064.098.094-.008.015-.02.018-.035.01a.082.082 0 0 0-.046-.01.998.998 0 0 1-.25-.016c-.013-.007-.023-.02-.023-.028Zm2.056.998a.687.687 0 0 1 .104-.042.691.691 0 0 0 .354-.287c.04-.073.074-.094.1-.063.038.046-.04.177-.157.261-.096.071-.427.178-.4.13Zm-3.722-2.307a.83.83 0 0 1 .153-.04c.248-.05.616-.147.927-.243.163-.05.302-.089.31-.084.034.019-.019.05-.176.106-.212.075-.501.152-.771.206l-.313.063c-.095.018-.143.016-.13-.008Zm-5.294-3.18a1.502 1.502 0 0 1-.243-.238.5.5 0 0 1-.114-.276c-.006-.095-.007-.09.028-.1.05-.014.079.017.116.122.083.238.304.437.7.633.35.172.542.237.787.268.07.01.1.026.072.042-.018.01-.07.004-.353-.042a1.723 1.723 0 0 1-.73-.255 8.053 8.053 0 0 1-.264-.154Zm5.077 2.68c.017-.03.391-.122.73-.178.227-.037.699-.138.863-.184.13-.036.166-.037.148-.005-.027.05-.732.215-1.233.288a5.259 5.259 0 0 0-.389.07c-.113.029-.131.03-.12.009Zm-3.148-2.428a2.497 2.497 0 0 0 .638-.409c.042-.038.107-.113.145-.167a.503.503 0 0 1 .089-.105c.04-.015.048.007.025.067-.06.154-.314.386-.554.503-.187.093-.364.15-.343.11Zm7.794 4.034c.006-.06-.04-.174-.095-.24-.086-.1-.176-.16-.423-.283-.295-.147-.354-.18-.361-.205-.005-.017 0-.023.022-.03.024-.006.073.018.4.196.366.2.372.204.422.266.029.034.06.09.073.124.026.079.023.203-.006.215-.03.012-.038.003-.032-.043ZM20.75 26.63c-.044-.06-.044-.095 0-.16.038-.054.087-.08.12-.062.031.017.024.065-.02.136-.037.057-.04.068-.025.1.015.033-.001.06-.027.043a.3.3 0 0 1-.048-.057Zm.177-.616c.006-.046.012-.123.014-.17l.002-.085.173-.312c.185-.336.25-.434.601-.905.342-.458.616-.776.688-.797.046-.013.064-.006.06.023a1.404 1.404 0 0 1-.137.181c-.073.09-.244.308-.377.485-.42.558-.577.795-.808 1.212-.146.265-.158.292-.168.36-.01.07-.03.11-.051.098a.25.25 0 0 1 .002-.09Zm-3.32-2.352a2.266 2.266 0 0 1-.52-.55 1.274 1.274 0 0 1-.163-.416c-.025-.132-.015-.176.035-.158.02.008.039.049.072.152.078.24.152.38.3.557.151.185.494.468.708.586.101.056.128.076.122.087-.005.008-.012.013-.017.01a9.48 9.48 0 0 0-.167-.07 1.64 1.64 0 0 1-.37-.198Zm-1.352-1.245a3.971 3.971 0 0 0-.04-.56.23.23 0 0 1-.005-.086c.012-.02.046-.03.07-.017.028.016.071.218.07.327a2.132 2.132 0 0 1-.065.397c-.018.034-.038-.005-.03-.06Zm2.773 1.475.082-.04c.116-.056.262-.177.438-.366a2.1 2.1 0 0 0 .353-.505c.13-.236.178-.34.264-.59.041-.119.056-.15.075-.158.037-.014.043 0 .037.078-.01.097-.057.24-.147.436-.22.477-.44.765-.756.983-.135.094-.323.193-.345.18-.01-.005-.01-.012 0-.018Zm-4.741-3.598c.113-.255.206-.393.433-.637.193-.207.608-.55.65-.537.046.015.004.068-.155.198-.34.276-.677.653-.87.972-.052.088-.078.121-.09.12-.015-.003-.007-.03.032-.116Zm.037.121c-.002-.043.335-.05.554-.013.23.039.522.156.69.275.146.105.39.422.37.48-.007.017-.016.022-.027.016-.01-.006-.016-.015-.012-.02.011-.021-.145-.227-.225-.294a2.687 2.687 0 0 0-.599-.332 1.828 1.828 0 0 0-.62-.087c-.105.003-.13-.002-.13-.026l-.001.001Zm2.95 1.034c.196-.355.328-.513.563-.675.115-.08.27-.146.3-.13.023.014-.009.049-.072.079-.09.041-.226.139-.315.224a3.425 3.425 0 0 0-.53.678c-.034.064-.05.083-.066.08-.017-.003-.001-.036.12-.256Zm-.92-.78a.991.991 0 0 1 .222-.1c.05-.016.173-.045.276-.065.103-.02.23-.05.284-.067.137-.043.184-.009.063.047-.077.035-.178.06-.464.115a4.303 4.303 0 0 0-.305.066c-.058.018-.084.02-.076.004Zm.37.17a.738.738 0 0 1 .125-.06c.064-.025.155-.07.2-.098.08-.05.13-.057.105-.016-.02.034-.084.068-.252.133-.152.059-.192.068-.177.04Zm5.892 2.808c.008-.057.086-.087.122-.048.026.026.003.06-.048.075-.048.014-.079.002-.074-.027Zm-.157-.202c-.013-.044-.386-.364-.857-.735a15.524 15.524 0 0 0-.856-.618c-.254-.168-.333-.227-.334-.252-.002-.028.038-.048.075-.038.04.01.713.451.953.623.31.224.962.754 1.043.85.052.061.092.146.08.17-.01.016-.072.039-.087.03-.005-.003-.012-.016-.017-.03Zm-6.64-4.22c-.05-.035-.053-.068-.004-.071.023-.001.11.036.29.124.142.069.419.2.615.294l.564.267c.114.055.317.162.45.238.21.122.25.148.302.204.074.08.093.118.064.127-.016.004-.026-.003-.048-.032-.024-.034-.07-.06-.4-.23a30.044 30.044 0 0 0-.758-.376c-.755-.358-.924-.444-1.074-.545Zm4.554 13.646c-.186-.127-.523-.42-.536-.467-.01-.03.042-.052.075-.034.017.01.102.08.188.155.17.148.327.266.539.404.153.102.249.18.218.181-.068 0-.3-.114-.484-.24Zm4.061 2.218a4.073 4.073 0 0 1-.432-.323c-.016-.02-.025-.045-.02-.054.014-.025.061-.008.13.05.172.139.917.562 1.284.73.454.206.891.374 1.217.469.181.052.395.099.441.095.02-.002.039.002.04.009.01.035-.135.057-.26.039-.259-.037-.744-.201-1.337-.454-.175-.074-.905-.46-1.063-.561Zm-.525-.494c-.039-.03-.05-.056-.03-.073.017-.014.05.001.07.032a.334.334 0 0 0 .031.039c.019.02 0 .044-.025.033a.372.372 0 0 1-.046-.031ZM19.034 31.8c-.058-.063-.06-.1-.009-.11.055-.01.067.002.095.088.034.112.002.12-.087.022Zm4.875 2.622c.007-.012.128-.06.251-.1.27-.087.479-.19.54-.266.05-.061.12-.071.11-.016-.016.079-.231.212-.489.3-.204.072-.431.116-.412.082Zm-2.345-1.574a.554.554 0 0 1-.038-.356c.03-.168.08-.262.125-.238.014.008.008.103-.012.19a1.127 1.127 0 0 0-.004.417c.02.082.02.097-.001.102-.02.006-.032-.011-.07-.115Zm-2.557-1.514a2.09 2.09 0 0 0-.005-.15c-.02-.279.144-.809.463-1.5.128-.28.5-.955.538-.979.033-.02.06-.009.055.024a7.862 7.862 0 0 1-.206.413c-.396.764-.562 1.177-.71 1.771a4.13 4.13 0 0 1-.073.265.774.774 0 0 0-.028.133c-.012.09-.038.107-.035.022h.001Zm8.236 4.433c-.01-.036.064-.07.104-.05.015.01.018.02.01.035-.022.04-.104.05-.114.015Zm-7.112-4.26c.004-.008.116-.043.76-.235.142-.043.264-.076.269-.073.005.003.003.016-.004.028-.008.016-.176.07-.505.165-.43.123-.539.147-.52.115Zm-.418-.296c.018-.033.267-.167.426-.229.193-.075.986-.279 1.529-.393.202-.043.259-.048.245-.023-.008.014-.353.107-.633.172-.419.098-1.028.264-1.21.331-.166.062-.305.128-.318.15-.003.006-.017.013-.03.015-.02.003-.022 0-.01-.023Zm7.848 4.208c.137-.164.382-.558.639-1.024.254-.462.351-.663.476-.982.059-.15.078-.191.096-.198.013-.005.027-.007.032-.004.02.011.005.103-.04.23-.087.24-.207.492-.446.925-.235.426-.327.57-.504.796a5.54 5.54 0 0 0-.132.174c-.064.089-.107.13-.127.12-.012-.008-.01-.017.006-.037Zm-5.66-3.893c0-.018.19-.288.262-.372.119-.14.298-.284.424-.343.077-.036.209-.074.225-.065.026.014-.001.035-.139.105-.23.118-.392.267-.583.545a.91.91 0 0 1-.123.154c-.026.01-.065-.006-.065-.024Zm5.283 2.567c.002-.004.015-.011.03-.017.013-.004.088-.041.167-.082.159-.083.27-.13.44-.189.065-.021.163-.069.218-.104.074-.048.107-.061.124-.052.018.01.018.018-.003.049-.062.093-.18.15-.556.265a3.688 3.688 0 0 0-.313.109c-.08.035-.12.044-.107.021Zm-1.926-1.268a1.41 1.41 0 0 1 .032-.37c.012-.033.02-.042.038-.04.038.006.059.108.043.214-.013.085-.08.28-.1.285a.273.273 0 0 1-.013-.09Zm1.915.327a4.36 4.36 0 0 0-.186-.137c-.184-.13-.265-.2-.403-.347-.236-.252-.338-.468-.318-.671.013-.125.058-.198.106-.172.02.011.029.077.026.203-.002.13.085.327.216.487.092.113.474.498.548.552.094.07.125.105.11.124-.016.02-.045.008-.1-.039Zm-6.48-3.663c-.192-.131-.316-.253-.339-.334-.016-.055-.003-.097.028-.093.01.002.037.032.06.07.079.128.222.238.588.454.226.134.246.148.24.168-.017.053-.04.046-.27-.082a6.3 6.3 0 0 1-.307-.183Zm7.315 3.9c.005-.009.04-.019.077-.022a.547.547 0 0 0 .127-.032c.092-.039.136.004.06.058-.027.018-.067.025-.148.023-.126-.003-.128-.004-.116-.027Zm-6.26-3.47c.005-.01.037-.024.07-.03.187-.04.457-.126.608-.198.176-.083.32-.191.39-.293.037-.053.052-.067.07-.06.03.01.019.072-.023.127-.1.137-.456.335-.738.41-.109.03-.363.074-.378.066-.005-.003-.005-.013 0-.023Zm1.762.858c.026-.048.193-.059.38-.022.258.049.623.237.814.418.116.11.277.305.28.339.002.044-.02.034-.079-.038-.133-.162-.375-.338-.689-.5-.252-.13-.346-.159-.556-.166-.154-.006-.163-.008-.15-.03Zm2.937.099c.035-.063.226-.293.287-.347.283-.25.72-.447.97-.441.101.002.148.015.149.04.001.019-.061.03-.15.03a1.031 1.031 0 0 0-.363.092c-.268.117-.657.388-.774.54a1.864 1.864 0 0 1-.067.083c-.02.023-.064.024-.052.003Zm-3.07-2.281a1.153 1.153 0 0 0 .102-.254c.041-.152.065-.196.095-.18.032.018.042.103.02.165a.443.443 0 0 1-.068.11.933.933 0 0 0-.076.107c-.018.034-.037.055-.053.058-.013.002-.023 0-.02-.006Zm6.01 2.267c.005-.006-.01-.036-.03-.067-.098-.14-.264-.265-.538-.4-.303-.15-.345-.173-.341-.192.009-.052.279.044.507.179.15.087.164.099.244.191.15.175.222.296.182.307-.016.005-.03-.006-.023-.018Zm.504.225a.224.224 0 0 1 .06-.124c.027-.022.091-.017.106.009.02.03 0 .059-.077.116-.072.054-.094.053-.09 0Zm-8.42-4.651c0-.02.075-.048.098-.036.034.02.026.044-.018.058-.04.013-.079.002-.08-.022Zm1.73.929c-.041-.061-.2-.204-.371-.335-.216-.165-.597-.337-.81-.367-.088-.013-.105-.02-.093-.042.025-.046.222-.023.434.05.157.053.412.183.526.267.052.04.128.109.167.153.095.109.226.302.215.32-.012.024-.029.012-.068-.046Zm-1.646-1.164a4.7 4.7 0 0 0 .125-.262c.158-.353.643-1.142.988-1.608.193-.259.401-.462.477-.465.043-.001.035.023-.038.106-.241.277-.312.37-.576.767-.163.243-.36.554-.686 1.08-.278.45-.289.465-.31.458-.014-.004-.01-.02.02-.076Zm8.6 4.52c.084-.093.17-.235.407-.678a9.64 9.64 0 0 0 .502-1.045c.107-.256.195-.433.226-.453.028-.019.057-.01.058.016.002.027-.208.57-.31.803-.126.287-.523 1.016-.623 1.142-.113.143-.246.264-.273.249-.008-.004-.003-.017.012-.034Zm-4.423-2.53c-.15-.124-.238-.246-.212-.292.024-.044.06-.026.129.065a.98.98 0 0 0 .19.182 3.6 3.6 0 0 0 .393.283c.074.04.095.064.066.072a1.747 1.747 0 0 1-.243-.112c-.192-.1-.24-.129-.323-.198Zm2.947.93c.007-.012.23-.067.63-.156a6.53 6.53 0 0 0 .362-.09 4.33 4.33 0 0 1 .346-.075c.137-.025.345-.073.462-.106.116-.034.217-.059.224-.055.029.016-.026.052-.166.106a3.133 3.133 0 0 1-.617.149c-.085.014-.22.04-.302.058-.081.018-.223.046-.315.062a9.02 9.02 0 0 0-.386.08c-.205.047-.252.052-.238.027Zm-10.624-6.024c-.057-.052-.079-.093-.062-.122.023-.042.07-.034.122.018.023.024.085.07.138.105a.43.43 0 0 0 .193.084c.093.018.118.031.09.047a1.972 1.972 0 0 1-.415-.083.573.573 0 0 1-.066-.049Zm6.953 3.782c.024-.296.057-.407.19-.624.159-.26.374-.494.587-.636.098-.066.159-.087.167-.06.003.012-.025.037-.18.16-.273.218-.557.616-.63.886-.016.06-.03.137-.032.17-.004.116-.015.156-.048.173-.045.022-.06.003-.054-.07Zm3.162 1.743c.01-.018.415-.137.612-.182.107-.023.522-.098.92-.166.4-.069.795-.141.88-.16a.91.91 0 0 1 .166-.03c.057.031-.275.12-.699.186-.646.101-1.486.26-1.676.316-.179.053-.216.06-.203.036Zm-10.697-6.221a.596.596 0 0 1-.097-.27c.01-.235.221-.555.474-.72.104-.068.152-.085.16-.058.003.01-.031.046-.101.103a.923.923 0 0 0-.307.36c-.087.158-.09.163-.116.31-.028.156-.02.21.038.284.027.034.025.073-.003.057a.278.278 0 0 1-.048-.066Zm10.44 5.686A.527.527 0 0 1 28 28.01c.19-.142.321-.293.44-.508a1.28 1.28 0 0 0 .163-.425c.013-.096.041-.168.062-.157.052.029.028.23-.05.426a1.79 1.79 0 0 1-.277.449 2.58 2.58 0 0 1-.39.316c-.037.013-.05.005-.034-.023Zm-8.912-4.953a1.05 1.05 0 0 1 .08-.062c.124-.093.153-.121.255-.254.127-.164.291-.457.346-.619.04-.122.06-.146.093-.128.03.016.032.094.004.192-.03.109-.193.405-.274.5-.096.11-.454.389-.49.38-.01 0-.015-.005-.013-.008Zm8.33 3.326a.505.505 0 0 1 .105-.041c.074-.023.257-.044.671-.077 1.177-.094 1.29-.105 1.66-.165l.436-.071a56.773 56.773 0 0 1 1.761-.24 44.581 44.581 0 0 0 1.66-.232l.362-.064c.24-.043.326-.052.335-.037.014.024-.078.05-.427.116-.645.123-.894.16-2.136.313-.786.097-1.708.225-1.791.247a6.701 6.701 0 0 1-.64.104c-.107.012-.248.036-.315.052-.108.026-.125.026-.107 0 .004-.003.005-.008.002-.01-.009-.004-1.501.115-1.529.123-.03.007-.056-.002-.048-.017v-.001Zm-4.038-2.558c-.006-.02.04-.04.084-.04.14.004.835.252 1.413.506.363.158.597.275 1.014.503.397.217.494.277.481.3-.003.006-.001.026.004.045a.098.098 0 0 1-.007.064c-.029.048-.088.094-.112.086-.012-.004-.016-.01-.01-.014.008-.005.018-.036.024-.072a.211.211 0 0 1 .023-.079c.01-.01-.021-.029-.168-.102a99.97 99.97 0 0 1-.478-.248 19.037 19.037 0 0 0-.493-.25c-.525-.252-1.276-.549-1.618-.64-.14-.038-.153-.043-.157-.06Zm7.837 4.277-.488-.377c-.32-.247-.62-.467-.895-.656-.199-.137-.84-.517-1.012-.6l-.12-.058.048-.003c.129-.01.152-.003.348.089.585.274 1.193.689 2.294 1.564.198.157.215.176.197.21-.02.036-.074.038-.133.005a3.808 3.808 0 0 1-.239-.174Zm-2.95-1.943a.993.993 0 0 1 .417-.121.82.82 0 0 1 .19.076c-.031.007-.61.05-.607.045Zm-9.418-5.387c-.001-.005.01-.019.024-.03.02-.015.03-.04.046-.115a.66.66 0 0 1 .042-.14c.02-.039.027-.043.052-.034.038.014.056.077.039.13-.027.083-.19.235-.203.19Zm5.29 2.764c.012-.021.041-.031.205-.067.84-.182 2.267-.317 4.382-.417a40.513 40.513 0 0 0 1.864-.12c.188-.022.442-.065.577-.098.105-.025.129-.012.054.03-.077.043-.26.083-.564.124a37.3 37.3 0 0 1-1.41.107 75.922 75.922 0 0 0-2.802.17c-.818.068-1.765.187-2.111.265-.163.036-.213.038-.195.006Zm-.872-.63a.212.212 0 0 1 .045-.03c.052-.03.137-.131.297-.354.325-.453.36-.509.733-1.185.311-.563.359-.644.374-.636.026.015-.003.082-.241.542-.368.712-.661 1.168-.975 1.517-.107.118-.134.141-.18.154-.034.01-.061.005-.053-.009Zm-.378-.289-.243-.218c-.64-.574-1.143-.924-1.742-1.21-.352-.168-.329-.155-.315-.18.033-.06.134-.03.504.152.499.245.896.512 1.414.95.345.292.471.43.453.497-.01.043-.03.046-.071.01Zm-4.012-2.48c-.009-.017-.108-.09-.273-.201-.515-.347-.535-.363-.521-.415.014-.054.035-.05.148.03.056.04.193.133.304.207.112.074.23.16.264.194.073.072.149.188.137.21-.012.021-.042.008-.059-.025Zm-2.947-1.686c-.012-.028-.012-.029.025-.036.041-.009.038-.01.289.087.267.103.578.256.926.456.277.159.32.186.373.242.033.035.08.08.106.098.072.057.09.083.065.094-.017.006-.028 0-.056-.027-.049-.049-.987-.565-1.217-.669a9.481 9.481 0 0 0-.321-.14c-.175-.07-.175-.07-.19-.105Zm.679-.108c.114-.05.186-.071.33-.098.091-.018.242-.046.335-.066.17-.035.26-.029.108.007-.045.01-.209.055-.364.098-.244.067-.393.093-.426.076-.005-.003.003-.011.017-.017Zm-.29-.257c.005-.036.078-.068.254-.109.175-.041.287-.062.675-.124.105-.016.23-.037.277-.047.048-.01.09-.011.095-.003.005.008-.033.023-.089.035-.053.01-.22.05-.372.086-.15.037-.38.09-.51.12-.128.03-.248.06-.268.066-.039.014-.066.004-.062-.024Zm-.077-.187c.015-.027.025-.053.021-.057-.003-.005.07-.137.164-.293.116-.194.219-.383.325-.596.148-.296.192-.398.307-.703.066-.175.086-.21.122-.209.045.001.05.029.022.14-.068.278-.375.928-.635 1.344-.082.13-.167.258-.19.281a1.438 1.438 0 0 0-.08.1c-.03.043-.046.056-.062.05-.018-.005-.017-.015.006-.057Zm13.863 7.324c.003-.005.019-.01.035-.013.214-.026.98-.187 1.395-.293.19-.049.435-.109.546-.135.111-.025.322-.079.467-.119.2-.056.263-.068.258-.051-.011.038-.336.14-.75.235-.097.022-.248.06-.337.084a4.976 4.976 0 0 1-.33.07c-.093.016-.323.06-.51.096a12.85 12.85 0 0 1-.773.14c-.003-.002-.003-.008 0-.014Zm-8.251-4.989c.035-.03.551-.195.808-.259.181-.045.344-.094.39-.117.042-.023.084-.036.093-.031.019.01-.002.052-.043.087-.043.036-.34.121-.701.201a5.155 5.155 0 0 0-.422.107.33.33 0 0 1-.119.028c-.008-.004-.011-.011-.006-.016Zm.73.17c.008-.012.38-.11.394-.104.031.018-.028.043-.194.082-.178.042-.212.045-.2.023Zm5.052 2.294c.006-.01.285-.057.943-.157.32-.048.703-.099 1.135-.148.407-.047.89-.116 1.182-.169.34-.061.314-.058.318-.044.014.05-.711.169-1.744.288-.865.099-1.763.221-1.807.246-.015.008-.035-.003-.027-.015v-.001Zm-3.532-2.43a.424.424 0 0 1-.137-.119c-.045-.065-.051-.105-.02-.114.016-.004.036.01.088.063.084.086.297.207.452.258.103.034.31.09.356.095.041.006.008.037-.048.046-.147.021-.46-.082-.691-.229Zm-8.113-4.855c-.016-.027-.02-.05-.01-.06.015-.019.044-.005.148.072.082.06.225.1.326.091a.371.371 0 0 1 .088-.001c.044.024-.167.05-.296.035-.102-.012-.221-.076-.256-.137Zm7.33 3.946a.591.591 0 0 0-.039-.132 1.02 1.02 0 0 1 .011-.818c.073-.172.198-.33.241-.306.013.007-.004.046-.086.199-.114.213-.135.274-.145.45-.009.138.011.377.042.503.016.063.02.106.01.115-.017.014-.042.006-.033-.011Zm-8.133-4.72a1.24 1.24 0 0 1-.022-.429c.017-.081.031-.114.136-.302.107-.19.127-.22.21-.306.164-.172.38-.298.438-.256.037.026.025.065-.018.059-.034-.005-.138.06-.226.14a1.407 1.407 0 0 0-.298.407c-.099.18-.113.213-.14.324a.98.98 0 0 0-.023.39c.007.039.009.077.005.086-.019.033-.042-.007-.062-.112Zm19.396 10.744-.18-.162c-.19-.171-.328-.42-.34-.613-.005-.075.026-.225.051-.246.028-.024.034 0 .028.115-.01.193.036.335.18.544.09.133.186.247.272.326.09.083.107.103.092.11-.007.004-.015.005-.019.002l-.084-.076ZM17.094 15.75c-.003-.02-.03-.039-.12-.088-.108-.06-.114-.066-.103-.087.022-.04.1-.034.178.015.064.04.069.046.082.107.009.035.011.069.005.074-.016.015-.036.005-.042-.022Zm17.804 9.535c-.182-.117-.21-.14-.277-.216-.198-.23-.283-.56-.21-.82a.522.522 0 0 1 .112-.217c.047-.04.052-.005.014.084-.109.247-.072.562.095.814.124.187.222.29.357.375.065.042.126.084.135.092.018.019.012.042-.008.028a10.09 10.09 0 0 0-.218-.14Zm-9.366-5.273a16.338 16.338 0 0 1 1.596-.236c.517-.055 1.652-.23 1.894-.293.086-.022.123-.018.106.011-.015.028-.241.08-.657.153-.759.13-1.395.21-2.217.279a4.891 4.891 0 0 0-.638.086c-.114.025-.159.025-.084 0Zm10.157 5.512a4.982 4.982 0 0 0-.199-.175c-.216-.181-.348-.335-.422-.495-.082-.178-.112-.55-.064-.795.031-.154.062-.226.178-.426.109-.183.12-.2.303-.399.222-.244.257-.3.236-.366-.015-.047-.062-.094-.082-.083-.015.008-.151-.002-.39-.03-.356-.04-.55-.053-1.181-.081-1.191-.052-1.62-.048-2.159.025-.136.02-.199.006-.185-.036a.045.045 0 0 1 .033-.028c.024-.003.027-.007.032-.055a.511.511 0 0 1 .037-.123c.033-.075.077-.224.073-.25a.6.6 0 0 1 .034-.112c.062-.166.094-.297.133-.541.02-.13.054-.316.073-.412.113-.553.236-1.64.222-1.953l-.003-.05-.083.021c-.252.064-.71.042-.976-.045a1.575 1.575 0 0 1-.472-.266.593.593 0 0 1-.205-.338.533.533 0 0 0-.047-.143c-.039-.041.018-.81.064-.87a.102.102 0 0 0 .012-.053c0-.029.025-.085.113-.243.1-.182.122-.215.187-.279a.875.875 0 0 1 .238-.176.97.97 0 0 0 .103-.06c.18-.124.452-.229.677-.261.175-.026.427 0 .619.063.094.03.52.253.527.274.006.022.044.031.073.017.053-.026.081-.1.138-.366.087-.4.143-.8.194-1.362.047-.53.034-1.185-.032-1.52-.014-.07-.02-.08-.053-.09a.172.172 0 0 0-.043-.01c-.014.003-.027.199-.02.3.051.679.02 1.338-.107 2.2a9.677 9.677 0 0 1-.135.697c-.002 0-.042-.027-.089-.061-.062-.046-.083-.067-.076-.079.004-.008.001-.015-.008-.015-.026.001-.035-.043-.013-.068a.486.486 0 0 0 .041-.174l.048-.326a9.996 9.996 0 0 0 .122-1.564c0-.117.001-.265.004-.327a.566.566 0 0 0 0-.121c-.009-.012.014-.091.054-.183a.926.926 0 0 0 .052-.202c.025-.18.06-.223.148-.174.055.03.363.11.648.169.118.024.252.054.297.067.21.06 1.012.199 1.41.245.18.02.672.035.82.024.033-.002.034-.003.02-.02-.01-.01-.06-.05-.11-.088-.136-.101-.182-.153-.222-.246a1.837 1.837 0 0 1-.086-.405.474.474 0 0 1 .028-.16c.018-.056.04-.152.05-.21a.868.868 0 0 1 .092-.273c.064-.14.08-.167.106-.181a.266.266 0 0 0 .063-.056c.055-.067.212-.211.287-.263.141-.097.54-.182.828-.177.232.005.338.026.486.1a.847.847 0 0 1 .318.246c.226.274.265.778.1 1.296a1.136 1.136 0 0 1-.144.295c-.116.19-.12.208-.075.288.029.05.08.08.245.142.345.129.8.218 1.467.287a9.49 9.49 0 0 0 1.534.018c.061-.007.095-.005.093.005-.027.108-.07.385-.104.665-.149 1.223-.199 1.837-.174 2.13.012.144.069.465.086.486.019.023.264.05.293.032a.388.388 0 0 0 .065-.07c.047-.062.24-.204.364-.267.27-.137.588-.173.912-.102.153.033.37.142.491.245.127.108.237.231.321.36l.145.216c.065.094.086.138.157.328.055.149.054.373-.003.643-.042.195-.138.41-.233.52-.062.075-.23.229-.396.367-.31.258-.843.346-1.36.224a1.126 1.126 0 0 1-.289-.115c-.201-.103-.287-.17-.376-.297a.538.538 0 0 0-.075-.093c-.02-.01-.123.03-.198.077l-.053.033-.011.07c-.039.232-.083.92-.079 1.198.008.435.08.983.188 1.446.04.17.17.489.25.607.061.093.062.093.037.136a.425.425 0 0 1-.14.115.86.86 0 0 0-.13.096c-.017.021-.027.018-.195-.052a4.438 4.438 0 0 0-.713-.233 6.936 6.936 0 0 0-1.324-.233 4.635 4.635 0 0 1-.201-.016 6.398 6.398 0 0 0-.548-.022c-.255 0-.535.091-.591.192-.013.023-.001.055.07.194.048.09.093.171.101.18.034.038.144.333.155.421.037.273-.048.593-.256.972-.18.327-.235.38-.7.675-.226.143-.317.165-.68.169-.229.001-.356-.017-.444-.065a.28.28 0 0 0-.143-.042c-.084-.003-.105-.014-.198-.104Zm.593.117c.004-.025 0-.025-.02-.004-.012.013-.012.02 0 .02.01.003.019-.005.02-.016Zm-.117-.309c.237.102.554.156.823.14a.447.447 0 0 1 .122.003c.01.006.099-.046.241-.143.206-.14.23-.16.29-.241.257-.351.443-.95.379-1.213-.011-.041-.02-.066-.022-.055l-.018.154c-.044.38-.207.875-.352 1.066a.721.721 0 0 1-.121.124c-.076.055-.27.133-.272.11 0-.012-.035-.015-.103-.009a1.236 1.236 0 0 1-.59-.083c-.123-.05-.152-.055-.15-.026 0 .018.088.063.197.102.08.028-.017.012-.139-.024a1.373 1.373 0 0 1-.457-.247 1.68 1.68 0 0 1-.462-.72c-.077-.264-.013-.657.157-.967.092-.167.148-.23.234-.265.078-.03.094-.056.145-.237.02-.073.044-.146.053-.162.012-.022.01-.048-.01-.095a1.338 1.338 0 0 0-.122-.222c-.004-.003-.033.017-.065.042-.092.075-.136.046-.048-.031a.2.2 0 0 0 .042-.046 2.344 2.344 0 0 0-.36-.052c-1.094-.108-2.648-.102-3.22.012a.296.296 0 0 1-.073.009c-.008-.004.02-.091.19-.593.179-.53.249-.824.316-1.321a7.93 7.93 0 0 0 .054-1.407c-.01-.154-.04-.3-.06-.305-.007-.002-.035.011-.06.029-.125.082-.712.056-1.11-.05-.333-.087-.54-.21-.68-.405a.681.681 0 0 1-.103-.234c-.048-.17-.051-.313-.01-.546.02-.125.02-.132-.003-.078a.829.829 0 0 0-.04.143c-.02.108-.054.726-.042.758a.673.673 0 0 0 .059.093c.136.19.417.347.76.43.061.014.113.029.113.033a.249.249 0 0 1-.035.057c-.05.067-.031.065.029-.003.044-.051.05-.053.108-.045.033.005.06.013.062.017a.357.357 0 0 1-.06.082.964.964 0 0 0-.067.084c-.01.022.088-.06.136-.113.041-.046.053-.052.088-.046.058.011.063.015.055.048-.007.026-.005.026.02-.003.022-.024.043-.032.083-.03.03 0 .056.007.058.012a.15.15 0 0 1-.018.052l-.022.04.045-.033a.307.307 0 0 0 .056-.049c.005-.01.06-.017.123-.017.062 0 .163-.007.227-.016.12-.017.154-.011.136.022a.977.977 0 0 1-.2.18.069.069 0 0 0-.038.013c-.02.013-.022.022-.008.054.009.021.02.074.023.117.008.078.01.08.06.022.021-.024.022-.029.005-.024-.034.01-.064-.013-.05-.037a2.83 2.83 0 0 1 .192-.229c.028-.024.029.579.001.958-.038.519-.164 1.27-.237 1.401a.124.124 0 0 0-.015.054c0 .023-.096.319-.196.607-.022.063-.053.16-.068.213a.448.448 0 0 1-.045.117c-.018.018-.016.019.022.02.075.002.066.052-.027.152-.012.013.009 0 .047-.028.059-.044.087-.054.186-.068.068-.01.118-.01.118-.001 0 .008.015.006.033-.006.036-.023.363-.052.725-.065.608-.02 1.375 0 2.024.056.353.03.454.044.527.07.03.012.073.021.094.022.037.002.041.008.087.099.039.076.045.101.033.124a1.46 1.46 0 0 0-.051.137c-.033.102-.038.109-.066.119-.02.007-.04.03-.062.067a1.561 1.561 0 0 1-.15.192c-.114.129-.12.14-.168.253-.084.199-.151.508-.145.662a.242.242 0 0 1-.03.107l-.031.06.033-.045.035-.046.006.065c.016.16.152.454.3.647.094.122.236.26.342.33.043.028.075.056.071.062-.003.007.001.009.014.007a.383.383 0 0 1 .102.032Zm.779-.029c.06 0 .143-.004.186-.008.064-.007.067-.005.023.005a1.367 1.367 0 0 1-.292.01c-.015-.004.023-.006.083-.007Zm-1.76-.521c.003-.006.004-.012.001-.014-.003-.001-.01 0-.018.005-.007.004-.008.01-.001.014a.013.013 0 0 0 .018-.005Zm-.066-.247c.008-.038.008-.038-.009-.01-.009.015-.014.033-.013.04.006.02.014.009.022-.03Zm-3.082-1.98c.026-.05.026-.05-.005-.024a.526.526 0 0 0-.056.051c-.023.024-.022.027.005.025.023-.001.036-.014.056-.052Zm3.898 2.236a.395.395 0 0 0-.06-.109.88.88 0 0 1-.116-.273 1.642 1.642 0 0 1-.058-.268.909.909 0 0 1 .046-.326.11.11 0 0 0 .014-.05c-.002-.038-.05-.017-.078.035a.697.697 0 0 0-.037.51.882.882 0 0 0 .153.306c.124.186.127.19.136.175Zm-.103-1.391c.02-.035.05-.08.07-.102.018-.02.064-.085.102-.143.067-.103.067-.106.044-.119-.015-.008-.033-.005-.05.01-.06.05-.248.419-.214.418.007-.001.029-.03.048-.064Zm-2.565-1.391c.087-.02.873.004 1.413.043.408.03.675.064.952.118.286.056.322.061.332.042.014-.025-.046-.05-.198-.085-.463-.104-1.27-.174-2.156-.184-.317-.004-.433.008-.438.049-.003.02.002.023.029.024a.323.323 0 0 0 .066-.007Zm-.286-.128a2.09 2.09 0 0 1 .174-.119c.17-.107.343-.242.337-.261-.007-.023-.043-.004-.159.079a5.92 5.92 0 0 0-.375.292c-.003.004 0 .01.006.014a.013.013 0 0 0 .017-.005Zm1.337.695c.008-.004.009-.01.002-.014-.007-.003-.015-.002-.018.005-.004.006-.004.012-.001.013.002.002.01 0 .017-.004Zm-1.62-.99c.035-.04.035-.065.001-.07-.023-.003-.043.023-.056.075-.01.041.016.04.054-.004Zm.312.021c.272-.19.67-.496.726-.558.032-.035.027-.065-.01-.065-.035 0-.123.047-.118.063.002.007.012.007.022.001.077-.041-.169.158-.41.334a2.118 2.118 0 0 0-.36.31c-.056.047.03 0 .15-.085Zm1.482.98c.013-.001.019-.007.013-.015-.003-.008-.017-.009-.03-.004-.025.01-.015.02.017.018Zm.151.008c.022-.014.011-.025-.014-.015-.014.006-.019.012-.012.015.007.004.018.004.026 0Zm3.195 1.576c.038-.147.04-.33.003-.474-.034-.133-.082-.239-.117-.258-.037-.02-.036.016.003.147.063.212.1.513.075.614-.02.086-.021.095-.002.074a.413.413 0 0 0 .038-.103Zm-5.072-2.991c.097-.259.143-.442.244-.974.077-.403.102-.602.112-.869.011-.331-.025-.702-.071-.728-.017-.009-.065.002-.074.017-.003.005.002.032.011.06.03.087.046.39.038.634-.012.307-.045.549-.152 1.126-.097.522-.136.708-.168.79-.03.078-.032.092-.01.086.013-.004.034-.047.07-.142Zm3.503 1.36c.037-.01.046-.031.039-.088-.013-.093-.092-.191-.144-.176-.037.01-.037.033 0 .082a.33.33 0 0 1 .05.114c.014.076.017.079.055.068Zm1.427.545c.006-.02.027-.044.06-.066a.335.335 0 0 0 .106-.129.428.428 0 0 1 .127-.151c.072-.057.076-.059.2-.063.274-.009.975.03.982.055a.35.35 0 0 1-.076.07.382.382 0 0 0-.077.07.552.552 0 0 0 .107-.069c.087-.062.113-.074.15-.07a.306.306 0 0 1 .05.008c.014.007-.015.037-.085.09-.108.08-.073.073.05-.012.081-.057.115-.072.146-.07.035.004.042.008.045.027.003.02.008.02.03.004.02-.015.06-.014.176.005a.47.47 0 0 1 .15.037c-.003.026-.047.06-.112.088a.288.288 0 0 0-.068.036c.002.003.035.01.074.015.062.008.08.005.129-.029.03-.02.057-.047.058-.057.006-.037.069-.041.205-.013l.188.036c.071.011.601.133.716.164.072.02.093.03.091.043-.002.01.004.012.02.004.013-.005.047-.002.075.01l.05.02-.024.028c-.021.026-.021.028.002.015.058-.03.086-.03.165-.004.081.027.106.024.074-.01a.891.891 0 0 1-.06-.092.33.33 0 0 0-.064-.086 4.735 4.735 0 0 0-.442-.122 12.964 12.964 0 0 0-1.783-.3c-.43-.038-1.007-.042-1.077-.007a1.063 1.063 0 0 0-.348.337c-.034.063-.055.197-.034.208.012.007.02 0 .025-.02Zm-.11-.212a3.16 3.16 0 0 1 .264-.363c.072-.076.018-.111-.06-.039a.678.678 0 0 0-.207.317c-.008.036-.02.08-.025.098-.014.053-.002.047.029-.013Zm-6.27-4.08c-.003-.01-.02.01-.043.055l-.038.073.043-.056c.025-.033.04-.063.038-.073Zm7.34 3.674c.214.01.47.027.568.036.349.03 1.132.148 1.57.235.21.042.283.042.27.002-.016-.058-1.41-.277-2.007-.316-.565-.037-.816-.044-.828-.024-.008.012-.004.024.014.033.014.008.2.023.414.034Zm-6.889-3.911c.068.013.205.027.303.03.171.006.56-.015.59-.032.028-.016-.008-.02-.118-.01a4.776 4.776 0 0 1-.733-.05.605.605 0 0 1-.24-.086l-.119-.065-.017-.059c-.019-.06-.042-.073-.063-.034-.062.111.121.254.397.306Zm5.12 2.028.36-.196c.112-.063.353-.191.537-.287.184-.095.42-.22.526-.277.392-.213.86-.435 1.224-.578.261-.103.469-.194.477-.21.019-.033-.052-.013-.266.073-.884.358-.857.344-2.374 1.187-.17.094-.38.21-.468.256-.161.086-.193.106-.18.112.004.003.077-.033.164-.08Zm-5.793-3.36a2.23 2.23 0 0 1 .26-.336.814.814 0 0 1 .284-.2c.09-.034.094-.068.008-.055-.109.016-.248.105-.37.234-.075.08-.11.138-.189.307-.05.11-.046.145.007.05Zm10.228 5.673c.004-.005.001-.013-.005-.016-.006-.004-.016.001-.021.011-.005.01-.003.017.005.017.009-.001.018-.006.02-.012Zm-.874-.757c.003-.006-.016-.033-.043-.06a3.547 3.547 0 0 1-.244-.293c-.01-.017-.021-.023-.04-.023-.085.005-.035.089.134.224.065.052.129.106.144.122.037.039.042.042.05.03h-.002Zm.274.038c.018-.01-.163-.252-.396-.528l-.311-.37a.925.925 0 0 0-.124-.127c-.042-.03-.046-.03-.056-.005-.012.034-.013.032.113.186.21.256.381.45.505.577.071.071.155.16.187.196.07.078.07.078.082.072Zm.165-1.044a4.212 4.212 0 0 1 .074-.408c.08-.355.16-.916.133-.93-.036-.02-.06.054-.08.242a8.882 8.882 0 0 1-.064.428 7.94 7.94 0 0 0-.063.467c-.008.096-.018.18-.021.186-.004.007-.002.016.004.019.006.003.014.002.017-.004Zm-7.383-4.79c.124-.361.201-.722.252-1.18.021-.199.044-.7.038-.872a6.282 6.282 0 0 0-.041-.624c-.013-.05-.017-.056-.04-.05-.022.007-.024.035-.017.23.013.39-.004 1.028-.035 1.322-.047.445-.17 1.117-.241 1.325-.011.033-.01.046.002.042.013-.004.037-.061.082-.193Zm7.89 3.266c.02-.037-.004-.044-.062-.017-.08.038-.085.074-.007.052.032-.008.063-.024.069-.035Zm-7.074-3.92a60.014 60.014 0 0 1 1.996-.993c.399-.186.444-.21.462-.252.021-.05 0-.061-.041-.02-.02.018-.117.072-.217.118-.459.212-.601.28-.953.452-.767.375-1.148.574-1.24.647-.092.075-.096.103-.007.048Zm7.747 4.126a.347.347 0 0 1 .123.042c.096.044.198.078.285.096.11.021.246.04.33.044.28.014.646-.063.809-.17.121-.08.335-.294.385-.388.05-.094.014-.07-.042.026-.103.18-.41.323-.818.38a1.704 1.704 0 0 1-.737-.077c-.282-.096-.581-.314-.61-.443-.017-.076-.096-.084-.237-.024-.109.047-.179.098-.2.146l-.015.037.077-.039c.087-.044.217-.08.24-.066.024.013.033.09.014.123a.136.136 0 0 1-.059.048l-.04.018.013.035c.008.019.019.037.024.04.006.003.028-.027.05-.067a.255.255 0 0 1 .046-.069c.003.002.03.029.058.06.066.072.177.161.241.194l.05.024-.072.1.036-.03a.384.384 0 0 1 .05-.04Zm-6.99-3.972c.187-.103.622-.317.83-.407.138-.06.448-.227.496-.267.012-.01.013-.019.003-.024a.59.59 0 0 0-.159.068 6.326 6.326 0 0 1-.308.154 7.955 7.955 0 0 0-.871.451 2.708 2.708 0 0 0-.157.092c-.014.025.04.004.167-.067Zm6.318 3.367a.35.35 0 0 1 .258-.096c.07.005.104-.014.064-.036-.039-.021-.09-.022-.166-.003a.262.262 0 0 0-.138.079.586.586 0 0 0-.074.08c-.02.038.012.024.056-.024Zm1.978.866c.018-.01.02-.015.01-.014a.101.101 0 0 0-.042.016c-.018.012-.021.017-.009.015a.093.093 0 0 0 .041-.017Zm-.122-.5c.151.008.34-.062.555-.207.134-.092.27-.247.197-.226a.315.315 0 0 0-.066.064c-.055.069-.17.155-.295.222-.126.067-.333.127-.414.119-.066-.007-.105.001-.08.015a.54.54 0 0 0 .103.012Zm-1.793-1.653c.02-.006-.002-.064-.03-.08-.034-.018-.04.007-.014.048.022.033.028.037.044.032Zm.99.4c.079-.042.28-.135.445-.208.342-.149.403-.178.433-.207.016-.015.017-.023.006-.03a.03.03 0 0 0-.032.004 5.95 5.95 0 0 1-.29.133c-.152.067-.33.148-.395.179a3.658 3.658 0 0 0-.338.184c-.002.002.004.009.011.014a.57.57 0 0 0 .16-.069Zm-8.347-4.53c.269.092.608.185.6.163-.005-.015-.112-.057-.426-.168a12.538 12.538 0 0 1-.3-.109c-.059-.023-.08-.02-.084.013-.005.025.008.031.21.1Zm8.758 4.762a4.81 4.81 0 0 1 .247-.112c.197-.082.44-.21.456-.237.024-.044-.022-.032-.154.038-.075.04-.251.13-.39.201-.14.071-.256.133-.259.138-.012.021.02.012.1-.028Zm-1.62-1.085a.469.469 0 0 1 .016-.135c.02-.037.03-.104.015-.121-.016-.02-.06.01-.07.046-.019.074.004.3.033.317a.674.674 0 0 0 .006-.107Zm-5.774-3.431a3.547 3.547 0 0 0 .83.02c.037-.002.063-.009.057-.015-.007-.007-.05-.01-.097-.01a4.837 4.837 0 0 1-.92-.075c-.109-.022-.138-.022-.136 0 0 .026.094.054.266.08Zm6.737 3.578c.227-.122.353-.156.55-.145.079.004.192.017.25.027.141.028.146.028.135.015-.019-.02-.275-.086-.37-.093a.96.96 0 0 0-.363.043 2.76 2.76 0 0 0-.399.222c-.019.035.046.012.197-.07Zm-.953-.834c.009-.09.021-.3.03-.504.012-.264.026-.365.1-.706.06-.284.07-.348.063-.4-.005-.03-.006-.031-.024-.017a.806.806 0 0 0-.06.2c-.023.1-.051.22-.064.265-.086.327-.119.715-.078.944a.754.754 0 0 1 .005.226c-.003.02 0 .037.009.036.01 0 .017-.017.019-.044Zm-4.517-3.078a.324.324 0 0 0 .061-.158c-.002-.011-.023-.03-.046-.043-.03-.017-.052-.045-.08-.1a2.104 2.104 0 0 1-.155-.484 1.506 1.506 0 0 1 .005-.473c.015-.064.012-.112-.004-.06-.079.262-.1.33-.124.4a.383.383 0 0 0-.023.146c.01.132.125.485.187.58a.315.315 0 0 0 .055.058c.026.02.033.035.027.058-.01.031.008.061.05.086.017.01.032.008.047-.01Zm1.82.67c.592.207 1.247.35 1.945.426.197.022.583.035.59.022.009-.015.01-.014-.143-.02a11.33 11.33 0 0 1-.932-.122 8.177 8.177 0 0 1-1.356-.333 3.14 3.14 0 0 0-.31-.093c-.02.006-.017.035.006.047.01.006.1.039.2.074Zm1.906.882.34-.177c.434-.222.655-.35.715-.41.033-.033-.007-.044-.052-.013-.021.013-.214.121-.428.239-.214.117-.444.248-.511.291-.212.135-.24.165-.064.07Zm.364.031c.327-.178.601-.361.488-.326a3.743 3.743 0 0 0-.256.157 8.91 8.91 0 0 1-.332.204c-.096.053-.114.064-.103.07.003.002.094-.046.203-.105Zm-2.643-1.39a.572.572 0 0 1 .03-.133c.045-.14.057-.22.038-.256-.018-.034-.042-.04-.056-.014a1.159 1.159 0 0 0-.04.147c-.026.12-.027.14-.004.214.025.087.037.102.032.043Zm-1.543-1.086a1.122 1.122 0 0 0-.007-.103c-.01-.125.019-.222.112-.37a.87.87 0 0 1 .267-.282.476.476 0 0 0 .09-.072c-.005-.019-.08.015-.163.075a.936.936 0 0 0-.276.316.337.337 0 0 0-.06.187c-.007.113.018.283.037.249Zm1.843.043c.022-.017.042-.132.045-.248a.48.48 0 0 0-.083-.288c-.062-.088-.234-.223-.249-.196-.008.014-.002.02.092.092a.513.513 0 0 1 .16.197c.035.078.036.254.001.42-.006.028.014.041.034.023Zm-6.9 9.894c-.031-.054-.022-.11.024-.145.06-.048.102-.019.067.046-.019.036.042.14.104.176.031.017.044.03.038.04-.006.01-.031.006-.08-.014-.11-.047-.128-.06-.154-.104Zm-1.716-1.48c.002-.004.08-.031.172-.06.093-.029.234-.083.314-.12.174-.079.203-.088.12-.036-.088.054-.2.1-.395.166-.158.053-.221.068-.211.05Zm-12.59-7.213c.009-.013-.086-.133-.148-.187a4.423 4.423 0 0 1-.179-.176 2.375 2.375 0 0 0-.206-.195c-.087-.068-.138-.118-.132-.13.023-.04.15.022.297.148a1.5 1.5 0 0 1 .274.3c.01.021.048.08.084.131.047.067.062.098.052.11-.015.018-.05.017-.041 0Zm6.544 3.553c-.002-.027.052-.059.259-.152.526-.237.872-.254 1.41-.071.144.049.39.181.494.265.144.117.115.137-.05.035-.296-.182-.756-.329-1.068-.341-.25-.01-.414.03-.777.191-.212.094-.266.109-.268.073Zm-5.853-3.302c.01-.019.237-.118.268-.117.034 0 .06.023.049.043-.01.018-.29.1-.307.09-.008-.004-.012-.012-.01-.016Zm8.164 4.5a.072.072 0 0 1 .007-.045c.016-.03.006-.06-.05-.15a1.556 1.556 0 0 0-.528-.48c-.065-.037-.11-.067-.104-.071.006-.003.121-.02.255-.036l.243-.03.05.047c.067.064.17.196.234.303.03.05.058.09.062.088.003 0 .078-.112.165-.247a8.88 8.88 0 0 1 .168-.255c.013-.013.295-.023.299-.01.009.03-.513.755-.571.794a.38.38 0 0 0-.064.06c-.057.07-.15.086-.166.032Zm-1.178-.779c-.002-.026.043-.043.179-.07.28-.054.57-.095.99-.14l.797-.09c.35-.041.969-.102 1.375-.138 1.088-.094 1.248-.113 1.833-.223.293-.055.356-.06.337-.024-.012.021-.2.069-.473.12-.502.095-.703.119-1.909.223-.807.07-2.77.293-3.007.341-.117.024-.122.024-.122.001Zm6.56 3.51c-.002-.007.001-.021.008-.032.018-.032.054-.328.053-.442 0-.117.013-.237.046-.452.012-.081.023-.197.024-.26.001-.107.002-.11.032-.119.03-.008.032-.006.046.058.008.036.014.09.013.118-.003.094-.08.584-.103.66-.013.04-.035.15-.047.243a3.404 3.404 0 0 1-.032.202c-.009.032-.033.046-.04.024Zm.143-.042.033-.07a.501.501 0 0 0 .04-.165c.005-.055.018-.158.03-.229.026-.17.11-.87.122-1.012.006-.077.002-.12-.012-.136-.026-.031-.018-.046.03-.049.051-.004.085.031.088.09.006.133-.074.857-.122 1.104-.037.191-.143.453-.19.466-.011.003-.02.004-.018 0Zm6.429 3.232c.056-.06.213-.342.25-.446.036-.107.045-.121.067-.108.027.014.014.104-.029.209-.071.176-.254.404-.3.378-.009-.005-.004-.016.012-.033ZM18.67 13.885c.063-.088.341-.602.485-.897.266-.549.37-.835.559-1.555a3.39 3.39 0 0 1 .108-.36c.03-.043.075-.046.08-.005.01.073-.064.431-.155.752-.134.473-.29.842-.575 1.359a5.132 5.132 0 0 1-.347.574c-.077.108-.15.2-.163.205-.046.018-.044-.002.008-.073Zm11.34 5.95a1.247 1.247 0 0 0-.123-.118 1.5 1.5 0 0 1-.45-.645c-.045-.14-.01-.15.06-.016.119.233.33.537.515.74.02.021.034.046.032.056-.003.02-.017.013-.034-.017Zm-10.524-5.92a.727.727 0 0 1 .135-.046c.071-.02.199-.061.282-.091.082-.03.346-.113.587-.183.24-.07.452-.14.472-.154.049-.032.09-.047.097-.033.013.024-.028.074-.086.105-.063.035-1.445.425-1.475.417-.01-.003-.015-.01-.012-.015Zm.476.268c.007-.012.447-.165.627-.218.154-.046.205-.052.188-.023-.008.016-.297.112-.567.188-.211.06-.256.069-.248.053Zm6.483 3.358c.14-.244.881-1.652.895-1.698a.52.52 0 0 0 .017-.072c.001-.013.012-.024.028-.027.073-.014.04.13-.096.423-.1.215-.541 1.015-.637 1.154a9.37 9.37 0 0 0-.137.206c-.049.074-.074.103-.099.112-.034.012-.034.012.029-.098Zm-3.97-2.379c-.058-.051-.107-.128-.097-.147.003-.006.017-.011.03-.014.022-.004.041.007.113.067.21.175.472.279.738.294.157.008.197.016.186.036-.013.024-.425-.002-.568-.035a1.173 1.173 0 0 1-.402-.201Zm16.566 8.997c.003-.005.121-.045.264-.09.236-.075.49-.14.806-.205.187-.038.455-.114.66-.187l.24-.082c.048-.015.07-.003.055.027-.012.02-.164.082-.389.155-.247.082-.363.11-.738.189-.51.104-.76.16-.815.18-.056.02-.09.025-.083.013Zm-17.226-9.58c-.15-.18-.18-.235-.293-.552a1.074 1.074 0 0 1-.028-.463c.031-.254.095-.434.254-.72.12-.22.152-.26.195-.245.03.009.023.026-.113.304-.154.315-.204.483-.225.751-.012.168.001.435.026.516.039.129.161.344.25.438.018.02.034.041.034.048.002.031-.028.008-.1-.078ZM30.33 19.3c-.218-.195-.36-.411-.413-.628-.026-.103-.023-.24.003-.255.02-.013.036.011.04.063.004.03.026.116.05.192a.87.87 0 0 0 .143.282c.165.238.406.452.64.569.147.073.148.09 0 .04a1.744 1.744 0 0 1-.463-.263Zm8.403 4.328c.08-.049 1.12-.378 1.126-.356.01.029-.096.066-.603.212-.298.086-.534.151-.523.144Zm-8.029-4.683c.01.001.02.007.022.013 0 .006-.007.005-.018-.002-.014-.007-.014-.012-.003-.01v-.001Zm-.191-.148a.539.539 0 0 1-.16-.266.547.547 0 0 1 0-.316c.028-.082.055-.11.083-.088.017.013.018.037.006.103a1.264 1.264 0 0 0-.017.122c-.002.113.069.309.163.455.053.08.053.083.016.063a.59.59 0 0 1-.091-.073Zm-6.511-3.621a1.16 1.16 0 0 1 .094-.068c.2-.137.394-.391.534-.695.131-.289.18-.53.15-.737-.014-.086.002-.11.052-.082.044.024.066.107.063.242-.004.211-.057.396-.189.661a1.363 1.363 0 0 1-.305.43c-.113.104-.364.275-.385.263-.01-.004-.015-.011-.014-.014Zm14.718 7.931c.018-.032.318-.047.624-.032.156.009.85.115.892.138.034.02-.045.012-.247-.023a5.774 5.774 0 0 0-1.045-.07c-.206.004-.232.003-.224-.013Zm2.69.627c.006-.011.044-.027.086-.034a.84.84 0 0 0 .297-.15.646.646 0 0 0 .098-.116c.042-.064.054-.076.07-.067.035.02.031.055-.015.128-.079.122-.258.225-.45.257-.086.014-.102.011-.087-.018Zm-14.415-8.06a.294.294 0 0 1 .09-.043 1.08 1.08 0 0 0 .17-.081c.107-.064.14-.078.16-.067.021.012 0 .042-.064.089a.705.705 0 0 1-.197.08c-.145.04-.171.043-.159.021Zm-.356-.225c.01-.015.324-.117.444-.143.171-.037.37-.063.392-.05.032.018.007.043-.06.06a9.261 9.261 0 0 1-.53.096.99.99 0 0 0-.154.034c-.073.024-.103.025-.092.003Zm-4.39-3.068c.014-.027.065-.046.087-.034.02.012.006.05-.026.067-.043.023-.081.002-.061-.033Zm-2.152-1.205c-.005-.02 0-.027.023-.04.026-.012.04-.007.191.072.09.047.262.13.383.188.247.115 1.333.708 1.425.778.071.053.095.1.065.13-.016.013-.031.015-.053.002-.018-.01-.031-.025-.03-.034.006-.027-1.213-.693-1.586-.867-.362-.17-.412-.198-.418-.229Zm6.865 3.78a16.644 16.644 0 0 0-1.345-.878 16.842 16.842 0 0 1-.503-.311c-.051-.038-.055-.044-.042-.07.015-.027.017-.027.13.03.165.085.982.581 1.26.767.202.134.355.252.476.363l.137.127c.023.02.025.026.006.033-.012.004-.028.005-.034 0l-.085-.061Zm2.73-.117c.003-.006.01-.01.015-.008a.761.761 0 0 0 .101-.039c.246-.108.367-.144 1.344-.404.476-.126 1.245-.366 1.374-.429.06-.03.111-.05.112-.045.01.032-.144.12-.297.174-.5.175-1.058.335-2.175.625-.156.04-.322.09-.37.11-.083.035-.117.04-.104.016Zm2.159.373c.175-.12.34-.229.365-.24.047-.023.084-.017.068.011s-.33.226-.704.443c-.017.009-.034.015-.04.011a3.539 3.539 0 0 1 .31-.225Zm.518.617a.861.861 0 0 0 .063-.273c.004-.052.014-.137.021-.188.028-.17.034-.345.014-.387-.023-.049-.002-.073.05-.06.059.016.074.061.068.206a1.45 1.45 0 0 1-.106.502c-.071.19-.09.227-.111.228-.008.001-.008-.011.001-.028Zm-1.69-.936c.003-.005.137-.04.298-.078.163-.04.543-.146.846-.239.507-.153.594-.176.579-.148-.012.02-.563.201-.772.252l-.578.143c-.333.082-.386.092-.373.07Zm2.079 1.121c0-.007.008-.055.018-.105.01-.05.018-.138.019-.195 0-.135.025-.329.079-.63.064-.351.076-.459.064-.539a.278.278 0 0 1-.004-.081c.004-.006.022-.002.041.008.06.034.072.122.043.33a9.696 9.696 0 0 1-.166.875c-.02.073-.043.177-.052.23a.39.39 0 0 1-.03.11c-.006.006-.011.005-.012-.003Zm8.603 4.63c.062-.048.307-.142.583-.224.308-.09.383-.106.39-.08.005.017-.038.032-.47.163-.24.074-.449.14-.463.147-.025.011-.058.007-.04-.007Zm-.064-.469c.01-.017.355-.127.359-.115.009.032-.04.054-.192.091-.145.035-.175.04-.167.024Zm1.525.169c.007-.004.03-.002.051.005a.957.957 0 0 0 .347.007c.255-.03.416-.078.49-.145.042-.038.085-.028.068.016-.036.095-.428.207-.648.186a2.724 2.724 0 0 1-.31-.057c-.005-.003-.004-.009.002-.012Zm-9.816-6.397a.199.199 0 0 0-.021-.053.448.448 0 0 1 .002-.237c.018-.031.067-.035.073-.006a.663.663 0 0 1-.023.231.158.158 0 0 0-.02.063c0 .03-.01.033-.012.003h.001Zm1.596-.575c.033-.02.092-.062.132-.093.086-.069.326-.203.735-.414.172-.089.323-.17.336-.181.028-.023.065-.023.072 0 .007.026-.092.09-.332.215-.123.064-.334.176-.468.25a6.83 6.83 0 0 1-.3.156 1.08 1.08 0 0 0-.126.067c-.04.025-.08.043-.09.04-.012-.001.002-.016.041-.04Zm.717-.099c.002-.003.052-.029.112-.056.058-.028.146-.077.193-.11a.337.337 0 0 1 .095-.054c.018.01-.02.055-.072.088-.118.072-.345.163-.328.132Zm.75-.01c-.1-.118-.13-.194-.126-.302.006-.163.126-.418.153-.326.003.01-.01.07-.03.133a.842.842 0 0 0-.037.187c-.002.107.05.27.109.343.027.033.043.063.037.067-.015.008-.013.01-.107-.102Zm.251-1.194a7.41 7.41 0 0 0 .075-.139c.057-.114.272-.304.331-.292.027.004-.007.052-.082.116a2.863 2.863 0 0 0-.307.331.106.106 0 0 1-.034.04c-.012.006-.006-.013.017-.056Zm5.685 2.325c.019-.035-.01-.16-.051-.216-.024-.034-.05-.052-.142-.096-.084-.04-.113-.06-.116-.075-.003-.016.006-.023.038-.029.08-.012.273.082.317.154.042.072.04.133-.009.22a.33.33 0 0 1-.047.074c-.003-.002 0-.016.01-.032Z"/>
      </g>
    </g>
  </g>
  <mask id="p" width="4" height="4" x="2" y="29" maskUnits="userSpaceOnUse" style="mask-type:luminance">
    <path fill="#fff" d="M2.91 29.151h2.894v2.895H2.91v-2.895Z"/>
  </mask>
  <g mask="url(#p)">
    <path fill="#52CEE0" d="M5.784 30.588a1.402 1.402 0 0 1-.11.55 1.463 1.463 0 0 1-.528.645 1.432 1.432 0 0 1-1.08.215 1.42 1.42 0 0 1-.517-.215 1.434 1.434 0 0 1-.53-1.744 1.418 1.418 0 0 1 .53-.646 1.458 1.458 0 0 1 .798-.242 1.438 1.438 0 0 1 1.437 1.438Z"/>
  </g>
  <path fill="#003986" fill-opacity=".4" d="M7.792 37.06a.73.73 0 0 1-.418.151.888.888 0 0 1-.398-.09 1.383 1.383 0 0 1-.356-.25 2.476 2.476 0 0 1-.285-.327 2.725 2.725 0 0 1-.156-.25 5.593 5.593 0 0 1-.13-.257c-.039-.082-.07-.16-.093-.235a2.31 2.31 0 0 1-.055-.2l.097-.048c.014.06.035.13.064.21a2.92 2.92 0 0 0 .34.702c.052.076.115.15.185.224a.96.96 0 0 0 .231.177.472.472 0 0 0 .542-.028.393.393 0 0 0 .163-.206.424.424 0 0 0 .002-.228 1 1 0 0 0-.09-.231c-.039-.077-.078-.152-.117-.224a20.013 20.013 0 0 1-.151-.313 1.504 1.504 0 0 1-.118-.352.804.804 0 0 1 .003-.341.475.475 0 0 1 .205-.283.659.659 0 0 1 .379-.14.756.756 0 0 1 .354.083c.113.057.218.134.315.231.098.098.184.2.26.309.094.13.176.263.247.398.07.135.128.279.172.432l-.104.033a1.886 1.886 0 0 0-.146-.394 3.18 3.18 0 0 0-.242-.408 1.817 1.817 0 0 0-.158-.19.841.841 0 0 0-.189-.154.436.436 0 0 0-.214-.061.378.378 0 0 0-.234.08c-.096.068-.154.141-.174.222a.484.484 0 0 0 .01.259c.028.094.072.196.134.306.061.112.125.234.193.365.081.156.133.29.153.401.022.113.025.21.01.292a.438.438 0 0 1-.092.203.762.762 0 0 1-.14.132ZM10.852 38.036l-1.657 1.706-.323-.313 1.657-1.707-.712-.69.066-.069 1.747 1.697-.066.069-.712-.693ZM14.241 41.976a1.2 1.2 0 0 1-.396.389c-.155.092-.322.15-.497.172a1.466 1.466 0 0 1-.535-.029 1.592 1.592 0 0 1-.512-.221 1.593 1.593 0 0 1-.657-.85 1.281 1.281 0 0 1-.047-.526c.02-.18.083-.355.19-.521.109-.166.24-.296.396-.387.157-.092.324-.15.5-.172.176-.024.355-.012.537.033.183.044.352.117.51.217.16.105.297.23.41.377.113.146.195.304.247.474.052.17.067.344.047.523-.02.18-.084.354-.193.52Zm-.436-.28c.078-.122.144-.252.196-.39.052-.14.078-.278.08-.414a.872.872 0 0 0-.092-.396.846.846 0 0 0-.314-.335.845.845 0 0 0-.832-.068 1.19 1.19 0 0 0-.344.24 1.994 1.994 0 0 0-.471.728 1.202 1.202 0 0 0-.08.413.826.826 0 0 0 .405.73.837.837 0 0 0 .832.069c.124-.057.239-.137.344-.24.105-.104.197-.217.276-.338ZM17.454 44.624a.138.138 0 0 1-.037.029.057.057 0 0 1-.045.004c-.011-.004-.022-.016-.033-.035a.212.212 0 0 1-.014-.09l-.054-1.772c-.005-.04-.015-.064-.029-.068-.009-.003-.018 0-.026.01l-1.185 1.404a.137.137 0 0 1-.038.028.056.056 0 0 1-.045.005c-.01-.005-.022-.018-.033-.038a.19.19 0 0 1-.011-.09l-.031-2.557.488.177-.021 1.813c0 .051.01.08.03.087.011.005.023 0 .036-.014l1.176-1.424a.222.222 0 0 1 .035-.028c.014-.01.027-.012.04-.007.013.003.023.015.03.035.008.019.013.05.015.094l.075 1.799c.002.034.011.055.029.06.012.006.022.003.03-.006l1.221-1.424.111.04-1.713 1.968ZM22.078 45.61l-.432-1.194-.945-.125-.712 1.044-.12-.017 1.575-2.274c.038-.055.073-.08.103-.075.022.003.041.02.06.051.018.03.035.068.051.111l.96 2.553-.54-.073Zm-.75-2.055c-.019-.05-.037-.076-.052-.077a.027.027 0 0 0-.03.011.206.206 0 0 0-.022.036l-.462.674.844.113-.278-.757ZM26.342 45.585l-.221-.495a10.505 10.505 0 0 0-.14-.304.99.99 0 0 0-.146-.231.47.47 0 0 0-.195-.137.669.669 0 0 0-.285-.033l-.41.028.04-.1.5-.034a.776.776 0 0 0 .268-.064.58.58 0 0 0 .189-.13.489.489 0 0 0 .139-.37.474.474 0 0 0-.177-.346c-.106-.086-.26-.122-.465-.108l-.575.04c-.052.003-.088.03-.108.082a.339.339 0 0 0-.026.154l.146 2.147-.445.03-.149-2.18a.624.624 0 0 1 .003-.099.335.335 0 0 1 .026-.096.19.19 0 0 1 .051-.073.133.133 0 0 1 .08-.033l1.099-.076c.361-.024.623.01.787.104a.473.473 0 0 1 .264.396.466.466 0 0 1-.082.328.713.713 0 0 1-.25.197 1.246 1.246 0 0 1-.335.104c-.12.02-.23.035-.33.043l.002.009c.1.002.194.011.283.028a.97.97 0 0 1 .257.083c.08.038.154.09.222.158a.913.913 0 0 1 .176.257l.319.686-.512.035ZM29.909 42.389c.007.036-.017.135-.073.297l-.75 2.128c-.03.08-.041.134-.033.16.006.024.033.03.08.02l1.346-.352.024.094-1.822.474a.5.5 0 0 1-.125.021c-.032 0-.051-.013-.057-.04-.011-.043.012-.14.069-.287l.784-2.136a.895.895 0 0 0 .033-.078.141.141 0 0 0 .012-.08c-.008-.026-.039-.033-.092-.02l-1.256.33-.024-.095 1.693-.443a.747.747 0 0 1 .132-.024c.033-.003.052.007.059.03ZM33.007 42.539l.469 1-.405.19-.444-.945-1.593-.832.462-.217 1.405.74.313-1.548.14-.066-.347 1.678ZM37.194 40.261c.1.139.15.277.154.415a.891.891 0 0 1-.085.399c-.06.127-.143.246-.248.358a2.432 2.432 0 0 1-.57.446 3.465 3.465 0 0 1-.493.228c-.074.023-.14.042-.2.056l-.047-.096c.06-.016.13-.038.21-.066a4.06 4.06 0 0 0 .492-.217 1.815 1.815 0 0 0 .427-.316c.073-.074.132-.151.177-.233a.484.484 0 0 0-.035-.542.379.379 0 0 0-.206-.16.443.443 0 0 0-.228 0 .934.934 0 0 0-.231.091l-.224.118c-.09.05-.193.101-.309.156a1.648 1.648 0 0 1-.351.118.806.806 0 0 1-.342.002.473.473 0 0 1-.285-.203.676.676 0 0 1-.142-.38.734.734 0 0 1 .08-.353c.057-.113.134-.218.231-.316.097-.097.198-.184.305-.264.13-.092.263-.175.398-.247.133-.074.276-.133.427-.18l.035.105c-.123.03-.254.08-.394.15-.14.071-.274.154-.405.248-.064.047-.127.1-.189.158a.783.783 0 0 0-.15.188.45.45 0 0 0-.062.217.375.375 0 0 0 .083.234.404.404 0 0 0 .221.172.502.502 0 0 0 .26-.012c.094-.028.196-.074.306-.137.111-.064.231-.13.36-.198.156-.083.29-.135.401-.158a.72.72 0 0 1 .292-.01c.082.017.15.047.203.09.053.045.098.091.134.14ZM38.633 36.619c.027.025.06.122.097.292l.474 2.204c.02.085.04.136.059.155.017.018.042.01.075-.026l.962-1.004.07.066-1.3 1.36a.637.637 0 0 1-.097.083c-.026.016-.048.014-.069-.005-.033-.031-.063-.126-.091-.283l-.45-2.227a1.22 1.22 0 0 0-.015-.087c-.006-.033-.017-.057-.033-.071-.02-.02-.05-.01-.087.028l-.898.938-.068-.066 1.209-1.263a.713.713 0 0 1 .099-.092c.025-.019.046-.02.063-.002ZM41.658 36.666a.138.138 0 0 1-.07.054.215.215 0 0 1-.088.008.449.449 0 0 1-.094-.026.454.454 0 0 1-.09-.045l-1.581-1.044a.464.464 0 0 1-.137-.142.186.186 0 0 1-.028-.085.124.124 0 0 1 .023-.085l1.085-1.64.08.054-.853 1.29c-.029.044-.029.09 0 .139a.35.35 0 0 0 .106.113l.667.44.742-1.126.08.052-.742 1.126.782.517c.043.028.09.046.144.051.055.007.097-.012.125-.056l.877-1.327.08.054-1.108 1.678ZM44.4 31.287c.041.015.066.034.076.056.01.023.011.044.002.066a.221.221 0 0 1-.08.094.404.404 0 0 1-.113.062l-2.392.954c-.015.005-.023.01-.026.017-.005.013.002.023.02.03l1.757.729-.036.09-2.241-.932c-.04-.015-.066-.036-.075-.061a.118.118 0 0 1 .002-.083.241.241 0 0 1 .139-.127l2.39-.96c.025-.007.039-.016.042-.027.003-.006 0-.013-.007-.022a.077.077 0 0 0-.019-.016l-1.697-.702.038-.09 2.22.922ZM45.013 29.41l-2.404-.585.106-.434 2.404.585-.106.434ZM45.516 26.863a.14.14 0 0 1-.035.082.222.222 0 0 1-.076.05.435.435 0 0 1-.193.023l-1.888-.174a.444.444 0 0 1-.097-.017.353.353 0 0 1-.094-.042.218.218 0 0 1-.064-.061.139.139 0 0 1-.019-.087l.18-1.959.096.01-.141 1.54c-.005.053.016.093.063.121a.346.346 0 0 0 .149.05l.794.073.123-1.341.096.007-.122 1.34.933.088a.348.348 0 0 0 .153-.021.121.121 0 0 0 .083-.109l.144-1.586.096.01-.181 2.003Z"/>
  <path fill="#052756" d="M7.583 36.94a.73.73 0 0 1-.418.15.888.888 0 0 1-.398-.09 1.383 1.383 0 0 1-.356-.249 2.477 2.477 0 0 1-.285-.328 2.71 2.71 0 0 1-.155-.25 5.493 5.493 0 0 1-.13-.256c-.04-.082-.07-.16-.094-.236a2.314 2.314 0 0 1-.055-.2l.097-.047c.014.059.035.13.064.21a2.922 2.922 0 0 0 .34.702c.052.075.115.15.185.224a.96.96 0 0 0 .231.176.472.472 0 0 0 .542-.028.393.393 0 0 0 .163-.205.424.424 0 0 0 .002-.229 1 1 0 0 0-.09-.23c-.039-.078-.078-.153-.117-.225a20.454 20.454 0 0 1-.151-.313 1.504 1.504 0 0 1-.118-.351.804.804 0 0 1 .003-.342.475.475 0 0 1 .205-.283.659.659 0 0 1 .38-.139.756.756 0 0 1 .353.083c.113.056.218.133.315.23.098.098.184.201.26.31.094.13.176.263.247.398.07.135.128.278.172.431l-.104.033a1.885 1.885 0 0 0-.146-.394c-.07-.14-.15-.275-.242-.407a1.817 1.817 0 0 0-.158-.191.841.841 0 0 0-.189-.153.436.436 0 0 0-.214-.062.378.378 0 0 0-.234.08c-.096.068-.154.142-.174.222a.483.483 0 0 0 .01.26c.028.093.072.195.134.306.061.111.125.233.193.365.081.156.133.289.153.4.022.114.025.211.01.293a.438.438 0 0 1-.092.203.762.762 0 0 1-.14.132ZM10.643 37.915l-1.657 1.707-.323-.314 1.657-1.706-.712-.69.066-.069 1.747 1.697-.066.068-.712-.693ZM14.031 41.855c-.107.166-.24.296-.396.39-.155.092-.322.149-.497.171a1.467 1.467 0 0 1-.535-.028 1.592 1.592 0 0 1-.512-.222 1.595 1.595 0 0 1-.657-.85 1.283 1.283 0 0 1-.047-.526 1.2 1.2 0 0 1 .19-.52c.109-.167.241-.296.396-.388.157-.092.324-.15.5-.171.176-.024.355-.013.538.032.182.045.351.117.509.217.16.106.297.231.41.377.113.147.195.304.247.474.052.17.067.344.047.523-.02.18-.085.354-.193.521Zm-.436-.28c.079-.122.144-.251.196-.39a1.23 1.23 0 0 0 .08-.414.87.87 0 0 0-.092-.396.846.846 0 0 0-.313-.334.846.846 0 0 0-.832-.069c-.125.057-.24.137-.345.24a1.997 1.997 0 0 0-.471.729 1.197 1.197 0 0 0-.08.412.826.826 0 0 0 .405.73.838.838 0 0 0 .434.15.863.863 0 0 0 .398-.08c.124-.057.239-.137.344-.241.105-.104.197-.216.276-.337ZM17.245 44.504a.137.137 0 0 1-.037.028.057.057 0 0 1-.045.005c-.011-.005-.022-.017-.033-.036a.21.21 0 0 1-.014-.09l-.054-1.772c-.005-.04-.014-.063-.029-.068-.009-.003-.018 0-.026.01l-1.185 1.404a.138.138 0 0 1-.038.029.056.056 0 0 1-.045.004c-.01-.005-.022-.017-.033-.038a.192.192 0 0 1-.011-.089l-.03-2.557.487.176-.021 1.813c0 .052.01.081.03.087.011.005.023 0 .036-.014l1.176-1.424a.222.222 0 0 1 .035-.028c.014-.01.027-.012.04-.007.013.004.023.015.03.035.008.02.013.051.015.095l.075 1.798c.002.034.011.055.029.061.012.005.022.003.03-.007l1.221-1.423.111.04-1.713 1.968ZM21.868 45.49l-.432-1.195-.945-.125-.712 1.044-.12-.016 1.575-2.274c.038-.055.073-.08.103-.076.022.004.041.02.06.052.018.03.035.067.051.11l.96 2.553-.54-.073Zm-.75-2.055c-.019-.05-.036-.076-.052-.078a.027.027 0 0 0-.03.012.223.223 0 0 0-.022.035l-.462.674.844.114-.278-.757ZM26.133 45.464l-.221-.495a10.63 10.63 0 0 0-.14-.304.993.993 0 0 0-.146-.23.47.47 0 0 0-.195-.138.669.669 0 0 0-.285-.032l-.41.028.04-.102.5-.033a.776.776 0 0 0 .268-.063.58.58 0 0 0 .189-.13.49.49 0 0 0 .139-.37.474.474 0 0 0-.177-.346c-.106-.086-.26-.123-.465-.109l-.575.04c-.052.004-.088.031-.108.083a.339.339 0 0 0-.026.153l.146 2.147-.445.03-.149-2.18a.65.65 0 0 1 .003-.098.339.339 0 0 1 .026-.097.19.19 0 0 1 .051-.073.133.133 0 0 1 .08-.033l1.099-.075c.361-.025.623.009.787.103a.473.473 0 0 1 .264.396.466.466 0 0 1-.082.328.713.713 0 0 1-.25.198 1.246 1.246 0 0 1-.335.104c-.12.02-.23.034-.33.042l.002.01c.1.001.194.01.283.028a.97.97 0 0 1 .257.082c.08.038.154.09.222.158a.913.913 0 0 1 .176.257l.319.686-.512.035ZM29.699 42.268c.007.037-.017.136-.074.297l-.749 2.128c-.03.08-.041.134-.033.16.006.024.033.03.08.02l1.346-.352.024.095-1.822.473a.504.504 0 0 1-.125.022c-.032 0-.05-.013-.057-.04-.011-.044.012-.14.069-.288l.784-2.135a.895.895 0 0 0 .033-.078.141.141 0 0 0 .012-.08c-.008-.027-.039-.034-.092-.022l-1.256.33-.024-.094 1.693-.443a.745.745 0 0 1 .132-.023c.033-.003.052.007.059.03ZM32.798 42.418l.469 1-.405.19-.444-.944-1.593-.833.462-.216 1.405.74.313-1.549.14-.066-.347 1.678ZM36.986 40.141c.099.139.15.277.153.415a.893.893 0 0 1-.085.398c-.06.127-.143.247-.248.358a2.415 2.415 0 0 1-.57.445 3.446 3.446 0 0 1-.493.23 2.8 2.8 0 0 1-.2.056l-.047-.096c.06-.016.13-.038.21-.067a4.194 4.194 0 0 0 .492-.216 1.837 1.837 0 0 0 .427-.316c.074-.074.132-.152.177-.233a.484.484 0 0 0-.035-.542.38.38 0 0 0-.206-.16.443.443 0 0 0-.228 0 .938.938 0 0 0-.231.091l-.224.118c-.09.049-.193.1-.309.155a1.642 1.642 0 0 1-.351.118.808.808 0 0 1-.342.003.473.473 0 0 1-.285-.203.676.676 0 0 1-.142-.38.734.734 0 0 1 .08-.353c.057-.113.134-.218.232-.316.096-.097.197-.185.304-.264a3.83 3.83 0 0 1 .398-.247c.133-.074.276-.133.426-.18l.036.104c-.123.03-.254.08-.394.151a3.04 3.04 0 0 0-.405.248c-.064.047-.127.1-.189.157a.788.788 0 0 0-.15.189.452.452 0 0 0-.062.217.375.375 0 0 0 .083.233.405.405 0 0 0 .221.172.505.505 0 0 0 .26-.012c.094-.028.196-.073.306-.136.111-.064.232-.13.36-.198.156-.083.29-.136.401-.158a.72.72 0 0 1 .292-.01c.082.016.15.046.203.09.053.044.098.09.135.14ZM38.423 36.498c.028.026.06.123.097.292l.474 2.204c.02.085.04.137.059.156.017.017.042.008.075-.026l.962-1.004.07.066-1.3 1.36a.632.632 0 0 1-.097.082c-.026.016-.048.014-.069-.005-.033-.03-.063-.125-.091-.282l-.45-2.228a1.16 1.16 0 0 0-.015-.087c-.006-.033-.017-.057-.033-.07-.02-.02-.05-.011-.087.028l-.898.938-.068-.066 1.209-1.264a.713.713 0 0 1 .099-.091c.025-.02.046-.02.063-.003ZM41.448 36.546a.137.137 0 0 1-.07.054.215.215 0 0 1-.088.007.448.448 0 0 1-.094-.026.452.452 0 0 1-.09-.045l-1.581-1.044a.46.46 0 0 1-.137-.141.186.186 0 0 1-.028-.085.123.123 0 0 1 .024-.085l1.084-1.64.08.054-.853 1.289c-.029.044-.029.09 0 .139a.347.347 0 0 0 .106.113l.667.44.742-1.126.08.052-.742 1.127.782.516c.043.028.09.046.144.052.055.006.097-.013.125-.057l.877-1.327.08.054-1.108 1.679ZM44.19 31.166c.041.016.066.035.076.057.01.022.012.044.002.066a.22.22 0 0 1-.08.094.4.4 0 0 1-.113.061l-2.392.955c-.014.005-.023.01-.026.016-.005.013.002.023.02.031l1.757.728-.036.09-2.241-.931c-.04-.015-.066-.036-.075-.061a.118.118 0 0 1 .002-.083.241.241 0 0 1 .139-.127l2.39-.96c.025-.007.039-.017.042-.028.003-.006 0-.013-.007-.021a.078.078 0 0 0-.019-.017l-1.697-.702.038-.09 2.22.922ZM44.804 29.289l-2.404-.585.107-.433 2.404.584-.107.434ZM45.307 26.742a.14.14 0 0 1-.035.083.221.221 0 0 1-.076.05.437.437 0 0 1-.193.023l-1.888-.174a.445.445 0 0 1-.097-.017.353.353 0 0 1-.094-.042.218.218 0 0 1-.064-.062.139.139 0 0 1-.018-.087l.179-1.958.096.009-.141 1.541c-.005.052.016.092.063.12a.349.349 0 0 0 .149.05l.794.073.123-1.34.096.006-.122 1.341.933.087a.349.349 0 0 0 .153-.02.121.121 0 0 0 .083-.11l.144-1.585.096.01-.181 2.003Z"/>
  <path fill="#003986" fill-opacity=".4" d="M3.545 23.83a.724.724 0 0 1 .429.104.89.89 0 0 1 .285.292c.073.12.125.254.158.403a2.343 2.343 0 0 1 .05.724 5.514 5.514 0 0 1-.031.285 2.372 2.372 0 0 1-.052.252 2.21 2.21 0 0 1-.066.198l-.106-.016c.02-.057.042-.126.064-.21a3.817 3.817 0 0 0 .094-.528c.008-.09.011-.173.01-.245a1.91 1.91 0 0 0-.034-.29c-.02-.1-.051-.192-.094-.273a.53.53 0 0 0-.181-.2.47.47 0 0 0-.29-.072.392.392 0 0 0-.25.08.41.41 0 0 0-.125.187 1.054 1.054 0 0 0-.054.243c-.01.086-.018.17-.026.252a8.05 8.05 0 0 1-.045.344c-.019.127-.05.247-.094.358a.81.81 0 0 1-.191.285.483.483 0 0 1-.328.123.682.682 0 0 1-.393-.092.74.74 0 0 1-.248-.266 1.22 1.22 0 0 1-.134-.368 2.363 2.363 0 0 1-.05-.4c-.004-.161.002-.317.017-.467a2.21 2.21 0 0 1 .092-.455l.103.03a1.884 1.884 0 0 0-.091.41c-.02.155-.029.313-.024.474.004.08.012.16.026.245.014.084.039.16.073.231.035.07.084.126.146.17a.378.378 0 0 0 .24.061.397.397 0 0 0 .265-.087.496.496 0 0 0 .134-.224c.028-.094.048-.204.059-.33.01-.127.022-.264.037-.412a1.52 1.52 0 0 1 .092-.417.745.745 0 0 1 .156-.246c.058-.06.12-.1.186-.12a.733.733 0 0 1 .191-.033ZM3.677 19.4c.197.034.369.105.516.213.146.107.264.237.353.389.091.15.152.318.184.502a1.64 1.64 0 0 1-.184 1.082 1.333 1.333 0 0 1-.804.667c-.174.053-.359.063-.555.03a1.174 1.174 0 0 1-.512-.212 1.32 1.32 0 0 1-.353-.389 1.462 1.462 0 0 1-.184-.504 1.649 1.649 0 0 1 .184-1.082c.09-.163.202-.302.339-.415.135-.114.29-.198.464-.25.173-.053.357-.063.552-.03Zm-.087.512a2.001 2.001 0 0 0-.434-.023 1.255 1.255 0 0 0-.41.09.836.836 0 0 0-.328.24.853.853 0 0 0-.184.422.85.85 0 0 0 .036.455c.05.13.126.242.228.334.103.093.222.168.359.224a1.97 1.97 0 0 0 .855.144c.148-.008.285-.038.41-.092a.877.877 0 0 0 .328-.24.814.814 0 0 0 .184-.418.842.842 0 0 0-.264-.794 1.225 1.225 0 0 0-.359-.22 2.052 2.052 0 0 0-.421-.122ZM5.412 18.008a.144.144 0 0 1-.057.071.177.177 0 0 1-.085.028.33.33 0 0 1-.099-.004.733.733 0 0 1-.096-.029l-2.039-.785.163-.417 2.01.773c.049.02.1.026.153.02.055-.007.092-.034.111-.08l.53-1.38.09.036-.681 1.767ZM7.123 12.506c.316.2.498.42.545.658.047.239-.03.516-.229.832a2.902 2.902 0 0 1-.259.353c-.093.11-.195.196-.306.257a.771.771 0 0 1-.359.097.779.779 0 0 1-.417-.137l-1.456-.917.238-.38 1.454.915a.67.67 0 0 0 .59.094.756.756 0 0 0 .258-.146c.08-.067.152-.151.215-.252.172-.273.232-.512.179-.716-.052-.206-.219-.397-.5-.575l-1.268-.797.052-.08 1.263.794ZM10.667 9.987l-1.464-1.45c-.028-.028-.049-.035-.061-.02-.007.006-.01.016-.01.03 0 .014.003.027.008.038l.747 2.192-.062.061-2.18-.726c-.04-.015-.068-.017-.082-.005-.01.013 0 .035.03.064l1.46 1.447-.069.069-1.626-1.613a.256.256 0 0 1-.087-.179.225.225 0 0 1 .063-.165.304.304 0 0 1 .153-.07.47.47 0 0 1 .236.02l1.883.609-.629-1.848a.522.522 0 0 1-.035-.243.267.267 0 0 1 .068-.158.19.19 0 0 1 .165-.051.343.343 0 0 1 .203.11l1.595 1.582-.306.306ZM15.346 6.686c-.004.06-.011.113-.022.16-.01.046-.031.076-.06.09a.108.108 0 0 1-.07.007.27.27 0 0 1-.098-.054l-2.11-1.63.47-.225 1.678 1.287c.028.025.05.033.068.023.014-.006.023-.02.028-.042a.251.251 0 0 0 .01-.066l.025-2.081.116-.055-.035 2.586ZM18.047 5.798a.133.133 0 0 1-.087-.004.23.23 0 0 1-.073-.055.36.36 0 0 1-.054-.082.633.633 0 0 1-.033-.094l-.476-1.834a.482.482 0 0 1-.007-.198.196.196 0 0 1 .035-.08.129.129 0 0 1 .073-.047l1.902-.495.024.092-1.497.389c-.05.012-.081.046-.092.1a.323.323 0 0 0 .005.156l.2.773 1.306-.339.024.094-1.306.34.236.905c.012.05.036.096.073.136a.121.121 0 0 0 .13.043l1.54-.4.024.094-1.947.506ZM23.343 4.963l-.217-.498a7.82 7.82 0 0 0-.132-.304.969.969 0 0 0-.146-.233.491.491 0 0 0-.194-.139.7.7 0 0 0-.287-.035l-.41.023.04-.099.5-.028a.768.768 0 0 0 .273-.061.581.581 0 0 0 .188-.13.51.51 0 0 0 .14-.37.461.461 0 0 0-.17-.344c-.104-.088-.259-.126-.465-.113l-.575.033c-.052.003-.089.03-.11.082a.319.319 0 0 0-.029.153l.128 2.148-.446.025-.127-2.18a.387.387 0 0 1 .028-.193.215.215 0 0 1 .054-.073.125.125 0 0 1 .08-.033l1.099-.066c.36-.02.62.017.785.11.165.095.252.227.261.397a.452.452 0 0 1-.087.327.708.708 0 0 1-.252.196c-.1.049-.211.084-.33.104-.12.019-.23.032-.33.037v.01c.099.003.193.013.283.03.09.018.175.046.254.085a.864.864 0 0 1 .391.42l.316.688-.514.03ZM25.375 5.049l.245-2.463.446.045-.245 2.463-.446-.045ZM29.246 3.321l-.587 2.305-.436-.11.587-2.306-.961-.245.023-.094 2.36.601-.024.094-.962-.245ZM32.748 7.216l-.045-1.27-.858-.41-.999.773-.11-.052 2.2-1.68c.054-.04.094-.053.12-.04.023.01.037.034.043.07a.679.679 0 0 1 .015.118l.127 2.725-.493-.234Zm-.08-2.187c-.002-.053-.01-.083-.024-.09-.012-.005-.024-.004-.035.005a.397.397 0 0 1-.03.024l-.646.502.768.365-.033-.806ZM36.643 8.858a.734.734 0 0 1-.351.271.889.889 0 0 1-.405.038 1.344 1.344 0 0 1-.413-.13 2.528 2.528 0 0 1-.375-.226 2.509 2.509 0 0 1-.223-.19 4.931 4.931 0 0 1-.2-.203 2.222 2.222 0 0 1-.163-.196 2.139 2.139 0 0 1-.114-.175l.078-.073c.031.051.073.11.125.18a3.117 3.117 0 0 0 .351.405c.066.062.128.116.186.16.074.055.156.107.246.156.09.048.182.081.273.099a.548.548 0 0 0 .271-.017.473.473 0 0 0 .236-.179.392.392 0 0 0 .094-.245.448.448 0 0 0-.068-.217 1 1 0 0 0-.156-.193 13.89 13.89 0 0 1-.422-.429 1.616 1.616 0 0 1-.219-.3.802.802 0 0 1-.101-.325.482.482 0 0 1 .108-.332.658.658 0 0 1 .32-.25.757.757 0 0 1 .364-.028c.123.02.246.063.367.127.123.063.237.134.344.212.128.096.246.198.356.307.11.107.209.225.297.356l-.087.06a1.964 1.964 0 0 0-.262-.327 2.939 2.939 0 0 0-.358-.316 1.914 1.914 0 0 0-.207-.134.77.77 0 0 0-.224-.087.48.48 0 0 0-.224.007.366.366 0 0 0-.2.148.404.404 0 0 0-.097.262.495.495 0 0 0 .087.245c.055.082.129.166.222.252.092.087.191.183.297.288.123.122.213.234.268.335.055.1.088.191.097.273.01.083 0 .157-.026.222a.75.75 0 0 1-.092.17Z"/>
  <path fill="#052756" d="M3.315 23.758a.724.724 0 0 1 .429.103.89.89 0 0 1 .285.293c.072.12.125.254.158.403a2.344 2.344 0 0 1 .05.723 5.514 5.514 0 0 1-.032.285 2.372 2.372 0 0 1-.051.253 2.21 2.21 0 0 1-.066.198l-.106-.017c.02-.056.041-.126.063-.21a3.817 3.817 0 0 0 .094-.528 2.15 2.15 0 0 0 .01-.245 1.911 1.911 0 0 0-.033-.29c-.02-.1-.052-.191-.094-.273a.53.53 0 0 0-.182-.2.47.47 0 0 0-.29-.071.392.392 0 0 0-.25.08.41.41 0 0 0-.124.186 1.053 1.053 0 0 0-.055.243c-.01.087-.017.17-.026.252-.01.103-.026.217-.044.344-.02.128-.05.247-.095.359a.81.81 0 0 1-.19.285.482.482 0 0 1-.328.122.681.681 0 0 1-.394-.092.74.74 0 0 1-.247-.266 1.22 1.22 0 0 1-.135-.368 2.363 2.363 0 0 1-.05-.4c-.004-.16.002-.316.017-.467a2.21 2.21 0 0 1 .092-.455l.104.03a1.886 1.886 0 0 0-.092.41c-.02.155-.028.313-.023.475.003.079.011.16.025.245.015.084.04.16.074.23.034.07.083.127.146.17a.377.377 0 0 0 .24.062.396.396 0 0 0 .264-.087.495.495 0 0 0 .134-.224c.029-.095.049-.204.06-.33.009-.128.022-.265.037-.413a1.52 1.52 0 0 1 .092-.417.746.746 0 0 1 .155-.245.45.45 0 0 1 .187-.12.733.733 0 0 1 .19-.033ZM3.445 19.329c.197.033.37.103.516.212.147.107.264.237.354.389.09.15.152.318.184.502a1.642 1.642 0 0 1-.184 1.082 1.333 1.333 0 0 1-.804.667c-.174.053-.36.063-.556.03A1.175 1.175 0 0 1 2.444 22a1.321 1.321 0 0 1-.354-.389 1.462 1.462 0 0 1-.184-.504 1.65 1.65 0 0 1 .184-1.082c.09-.163.203-.302.34-.415.135-.114.29-.198.464-.25.173-.053.357-.063.551-.03Zm-.087.511a1.995 1.995 0 0 0-.434-.023 1.255 1.255 0 0 0-.41.089.835.835 0 0 0-.327.24.852.852 0 0 0-.184.422.85.85 0 0 0 .035.455c.05.131.127.242.229.335.102.093.221.167.358.224.137.055.276.094.417.118.143.025.29.034.439.026.148-.008.284-.039.41-.092a.878.878 0 0 0 .327-.24.814.814 0 0 0 .184-.418.842.842 0 0 0-.264-.794 1.227 1.227 0 0 0-.358-.22 2.046 2.046 0 0 0-.422-.122ZM5.181 17.936a.143.143 0 0 1-.056.071.177.177 0 0 1-.085.028.33.33 0 0 1-.099-.004.749.749 0 0 1-.097-.029l-2.038-.784.162-.418 2.01.773c.049.02.1.026.154.02.055-.007.092-.034.11-.08l.531-1.38.09.036-.682 1.767ZM6.892 12.434c.316.2.497.419.544.657.048.24-.029.516-.228.832a2.902 2.902 0 0 1-.26.354c-.093.11-.195.195-.306.257a.771.771 0 0 1-.358.096.779.779 0 0 1-.417-.136l-1.457-.917.238-.38 1.454.915a.672.672 0 0 0 .848-.052c.081-.067.152-.152.215-.252.173-.274.233-.512.18-.717-.052-.205-.22-.397-.5-.575l-1.268-.796.052-.08 1.263.794ZM10.436 9.915l-1.463-1.45c-.029-.028-.05-.035-.062-.021-.006.007-.009.017-.009.03 0 .015.002.028.007.038l.747 2.192-.061.062-2.18-.726c-.04-.016-.069-.017-.083-.005-.01.013 0 .034.031.064l1.459 1.447-.068.068-1.627-1.612a.256.256 0 0 1-.087-.18.225.225 0 0 1 .064-.164.304.304 0 0 1 .153-.07.47.47 0 0 1 .236.02l1.883.608-.63-1.847a.522.522 0 0 1-.035-.243.267.267 0 0 1 .068-.158.19.19 0 0 1 .165-.052.343.343 0 0 1 .203.11l1.596 1.582-.307.307ZM15.115 6.614a.996.996 0 0 1-.021.16c-.011.046-.032.075-.061.09a.108.108 0 0 1-.069.006.27.27 0 0 1-.099-.054l-2.11-1.628.47-.227 1.678 1.287c.028.026.05.033.068.024.014-.006.024-.02.029-.043a.251.251 0 0 0 .01-.066l.025-2.08.115-.055-.035 2.586ZM17.817 5.726a.132.132 0 0 1-.087-.005.23.23 0 0 1-.073-.054.364.364 0 0 1-.054-.083.633.633 0 0 1-.033-.094l-.477-1.834a.475.475 0 0 1-.007-.198.195.195 0 0 1 .036-.08.128.128 0 0 1 .073-.047l1.902-.495.023.092-1.496.389c-.05.013-.081.047-.092.101a.321.321 0 0 0 .005.156l.2.773 1.306-.34.023.095-1.305.34.235.904c.013.051.037.096.073.137a.121.121 0 0 0 .13.042l1.541-.4.024.094-1.947.507ZM23.112 4.89l-.217-.497a7.524 7.524 0 0 0-.132-.304.969.969 0 0 0-.146-.233.49.49 0 0 0-.193-.14.7.7 0 0 0-.288-.035l-.41.024.04-.1.5-.027a.769.769 0 0 0 .273-.062.582.582 0 0 0 .189-.13.51.51 0 0 0 .139-.37.461.461 0 0 0-.17-.343c-.104-.088-.258-.126-.464-.114l-.575.033c-.052.004-.09.031-.11.083a.32.32 0 0 0-.03.153l.128 2.147-.445.026-.128-2.18a.387.387 0 0 1 .029-.193.216.216 0 0 1 .054-.073.125.125 0 0 1 .08-.033l1.098-.066c.36-.02.621.016.785.11.165.095.252.227.262.396a.452.452 0 0 1-.087.328.708.708 0 0 1-.253.196c-.1.049-.21.083-.33.103-.12.02-.23.032-.33.038v.01c.1.003.194.013.283.03.091.018.176.046.255.085a.864.864 0 0 1 .391.42l.316.688-.514.03ZM25.145 4.977l.245-2.463.445.044-.245 2.463-.445-.044ZM29.017 3.249l-.587 2.305-.436-.11.587-2.306-.962-.245.024-.094 2.359.6-.024.095-.961-.245ZM32.518 7.144l-.045-1.27-.858-.41-1 .773-.11-.052 2.201-1.68c.053-.04.093-.053.12-.04.022.01.036.034.043.07a.69.69 0 0 1 .014.118l.127 2.724-.492-.233Zm-.08-2.187c-.002-.053-.01-.083-.024-.09-.013-.006-.025-.005-.035.005a.415.415 0 0 1-.031.023l-.646.502.768.366-.032-.806ZM36.412 8.786a.734.734 0 0 1-.351.271.89.89 0 0 1-.406.038 1.345 1.345 0 0 1-.412-.13 2.527 2.527 0 0 1-.375-.226 2.496 2.496 0 0 1-.224-.191 4.993 4.993 0 0 1-.2-.203 2.085 2.085 0 0 1-.276-.37l.078-.073c.031.05.073.11.125.18a3.149 3.149 0 0 0 .351.405c.066.062.128.116.186.16.074.055.156.107.245.155.09.049.182.082.274.1a.548.548 0 0 0 .27-.017.473.473 0 0 0 .236-.18.393.393 0 0 0 .095-.244.45.45 0 0 0-.069-.217 1 1 0 0 0-.155-.193 12.796 12.796 0 0 1-.422-.43 1.616 1.616 0 0 1-.22-.299.802.802 0 0 1-.1-.325.482.482 0 0 1 .108-.332.658.658 0 0 1 .32-.25.757.757 0 0 1 .363-.028c.124.02.246.063.368.127.122.063.237.134.344.212.127.096.246.198.356.306.11.108.208.226.297.356l-.087.062a1.964 1.964 0 0 0-.262-.328 2.94 2.94 0 0 0-.358-.316 1.903 1.903 0 0 0-.208-.134.77.77 0 0 0-.224-.087.48.48 0 0 0-.224.007.366.366 0 0 0-.2.148.404.404 0 0 0-.096.262.496.496 0 0 0 .087.245c.054.082.128.166.221.252.093.087.192.183.297.288.124.122.214.234.269.334.055.1.087.192.097.274.009.083 0 .156-.026.221a.75.75 0 0 1-.092.17Z"/>
  <defs>
    <linearGradient id="l" x1="4.176" x2="42.978" y1="26.356" y2="21.743" gradientUnits="userSpaceOnUse">
      <stop stop-color="#5DE0E6"/>
      <stop offset=".063" stop-color="#5DE0E6"/>
      <stop offset=".078" stop-color="#5DE0E6"/>
      <stop offset=".082" stop-color="#5CDFE6"/>
      <stop offset=".086" stop-color="#5CDEE5"/>
      <stop offset=".09" stop-color="#5BDDE5"/>
      <stop offset=".094" stop-color="#5BDDE5"/>
      <stop offset=".098" stop-color="#5BDCE4"/>
      <stop offset=".102" stop-color="#5ADBE4"/>
      <stop offset=".105" stop-color="#5ADAE4"/>
      <stop offset=".109" stop-color="#59DAE4"/>
      <stop offset=".113" stop-color="#59D9E3"/>
      <stop offset=".117" stop-color="#58D8E3"/>
      <stop offset=".121" stop-color="#58D8E3"/>
      <stop offset=".125" stop-color="#58D7E3"/>
      <stop offset=".129" stop-color="#57D6E2"/>
      <stop offset=".133" stop-color="#57D6E2"/>
      <stop offset=".137" stop-color="#56D5E2"/>
      <stop offset=".141" stop-color="#56D4E2"/>
      <stop offset=".145" stop-color="#55D4E1"/>
      <stop offset=".148" stop-color="#55D3E1"/>
      <stop offset=".152" stop-color="#55D2E1"/>
      <stop offset=".156" stop-color="#54D2E1"/>
      <stop offset=".16" stop-color="#54D1E0"/>
      <stop offset=".164" stop-color="#53D0E0"/>
      <stop offset=".168" stop-color="#53CFE0"/>
      <stop offset=".172" stop-color="#52CFDF"/>
      <stop offset=".176" stop-color="#52CEDF"/>
      <stop offset=".18" stop-color="#52CDDF"/>
      <stop offset=".184" stop-color="#51CDDF"/>
      <stop offset=".188" stop-color="#51CCDE"/>
      <stop offset=".191" stop-color="#50CBDE"/>
      <stop offset=".195" stop-color="#50CBDE"/>
      <stop offset=".199" stop-color="#4FCADE"/>
      <stop offset=".203" stop-color="#4FC9DD"/>
      <stop offset=".207" stop-color="#4FC9DD"/>
      <stop offset=".211" stop-color="#4EC8DD"/>
      <stop offset=".215" stop-color="#4EC7DD"/>
      <stop offset=".219" stop-color="#4DC6DC"/>
      <stop offset=".223" stop-color="#4DC6DC"/>
      <stop offset=".227" stop-color="#4CC5DC"/>
      <stop offset=".23" stop-color="#4CC4DC"/>
      <stop offset=".234" stop-color="#4CC4DB"/>
      <stop offset=".238" stop-color="#4BC3DB"/>
      <stop offset=".242" stop-color="#4BC2DB"/>
      <stop offset=".246" stop-color="#4AC2DA"/>
      <stop offset=".25" stop-color="#4AC1DA"/>
      <stop offset=".254" stop-color="#49C0DA"/>
      <stop offset=".258" stop-color="#49C0DA"/>
      <stop offset=".262" stop-color="#49BFD9"/>
      <stop offset=".266" stop-color="#48BED9"/>
      <stop offset=".27" stop-color="#48BED9"/>
      <stop offset=".273" stop-color="#47BDD9"/>
      <stop offset=".277" stop-color="#47BCD8"/>
      <stop offset=".281" stop-color="#46BBD8"/>
      <stop offset=".285" stop-color="#46BBD8"/>
      <stop offset=".289" stop-color="#46BAD8"/>
      <stop offset=".293" stop-color="#45B9D7"/>
      <stop offset=".297" stop-color="#45B9D7"/>
      <stop offset=".301" stop-color="#44B8D7"/>
      <stop offset=".305" stop-color="#44B7D7"/>
      <stop offset=".309" stop-color="#43B7D6"/>
      <stop offset=".313" stop-color="#43B6D6"/>
      <stop offset=".316" stop-color="#43B5D6"/>
      <stop offset=".32" stop-color="#42B5D6"/>
      <stop offset=".324" stop-color="#42B4D5"/>
      <stop offset=".328" stop-color="#41B3D5"/>
      <stop offset=".332" stop-color="#41B3D5"/>
      <stop offset=".336" stop-color="#40B2D4"/>
      <stop offset=".34" stop-color="#40B1D4"/>
      <stop offset=".344" stop-color="#40B0D4"/>
      <stop offset=".348" stop-color="#3FB0D4"/>
      <stop offset=".352" stop-color="#3FAFD3"/>
      <stop offset=".355" stop-color="#3EAED3"/>
      <stop offset=".359" stop-color="#3EAED3"/>
      <stop offset=".363" stop-color="#3DADD3"/>
      <stop offset=".367" stop-color="#3DACD2"/>
      <stop offset=".371" stop-color="#3DACD2"/>
      <stop offset=".375" stop-color="#3CABD2"/>
      <stop offset=".379" stop-color="#3CAAD2"/>
      <stop offset=".383" stop-color="#3BAAD1"/>
      <stop offset=".387" stop-color="#3BA9D1"/>
      <stop offset=".391" stop-color="#3BA8D1"/>
      <stop offset=".395" stop-color="#3AA8D1"/>
      <stop offset=".398" stop-color="#3AA7D0"/>
      <stop offset=".402" stop-color="#39A6D0"/>
      <stop offset=".406" stop-color="#39A5D0"/>
      <stop offset=".41" stop-color="#38A5CF"/>
      <stop offset=".414" stop-color="#38A4CF"/>
      <stop offset=".418" stop-color="#38A3CF"/>
      <stop offset=".422" stop-color="#37A3CF"/>
      <stop offset=".426" stop-color="#37A2CE"/>
      <stop offset=".43" stop-color="#36A1CE"/>
      <stop offset=".434" stop-color="#36A1CE"/>
      <stop offset=".438" stop-color="#35A0CE"/>
      <stop offset=".441" stop-color="#359FCD"/>
      <stop offset=".445" stop-color="#359FCD"/>
      <stop offset=".449" stop-color="#349ECD"/>
      <stop offset=".453" stop-color="#349DCD"/>
      <stop offset=".457" stop-color="#339CCC"/>
      <stop offset=".461" stop-color="#339CCC"/>
      <stop offset=".465" stop-color="#329BCC"/>
      <stop offset=".469" stop-color="#329ACC"/>
      <stop offset=".473" stop-color="#329ACB"/>
      <stop offset=".477" stop-color="#3199CB"/>
      <stop offset=".48" stop-color="#3198CB"/>
      <stop offset=".484" stop-color="#3098CA"/>
      <stop offset=".488" stop-color="#3097CA"/>
      <stop offset=".492" stop-color="#2F96CA"/>
      <stop offset=".496" stop-color="#2F96CA"/>
      <stop offset=".5" stop-color="#2F95C9"/>
      <stop offset=".504" stop-color="#2E94C9"/>
      <stop offset=".508" stop-color="#2E94C9"/>
      <stop offset=".512" stop-color="#2D93C9"/>
      <stop offset=".516" stop-color="#2D92C8"/>
      <stop offset=".52" stop-color="#2C91C8"/>
      <stop offset=".523" stop-color="#2C91C8"/>
      <stop offset=".527" stop-color="#2C90C8"/>
      <stop offset=".531" stop-color="#2B8FC7"/>
      <stop offset=".535" stop-color="#2B8FC7"/>
      <stop offset=".539" stop-color="#2A8EC7"/>
      <stop offset=".543" stop-color="#2A8DC7"/>
      <stop offset=".547" stop-color="#298DC6"/>
      <stop offset=".551" stop-color="#298CC6"/>
      <stop offset=".555" stop-color="#298BC6"/>
      <stop offset=".559" stop-color="#288BC6"/>
      <stop offset=".563" stop-color="#288AC5"/>
      <stop offset=".566" stop-color="#2789C5"/>
      <stop offset=".57" stop-color="#2789C5"/>
      <stop offset=".574" stop-color="#2688C4"/>
      <stop offset=".578" stop-color="#2687C4"/>
      <stop offset=".582" stop-color="#2686C4"/>
      <stop offset=".586" stop-color="#2586C4"/>
      <stop offset=".59" stop-color="#2585C3"/>
      <stop offset=".594" stop-color="#2484C3"/>
      <stop offset=".598" stop-color="#2484C3"/>
      <stop offset=".602" stop-color="#2383C3"/>
      <stop offset=".605" stop-color="#2382C2"/>
      <stop offset=".609" stop-color="#2382C2"/>
      <stop offset=".613" stop-color="#2281C2"/>
      <stop offset=".617" stop-color="#2280C2"/>
      <stop offset=".621" stop-color="#2180C1"/>
      <stop offset=".625" stop-color="#217FC1"/>
      <stop offset=".629" stop-color="#207EC1"/>
      <stop offset=".633" stop-color="#207EC1"/>
      <stop offset=".637" stop-color="#207DC0"/>
      <stop offset=".641" stop-color="#1F7CC0"/>
      <stop offset=".645" stop-color="#1F7BC0"/>
      <stop offset=".648" stop-color="#1E7BBF"/>
      <stop offset=".652" stop-color="#1E7ABF"/>
      <stop offset=".656" stop-color="#1D79BF"/>
      <stop offset=".66" stop-color="#1D79BF"/>
      <stop offset=".664" stop-color="#1D78BE"/>
      <stop offset=".668" stop-color="#1C77BE"/>
      <stop offset=".672" stop-color="#1C77BE"/>
      <stop offset=".676" stop-color="#1B76BE"/>
      <stop offset=".68" stop-color="#1B75BD"/>
      <stop offset=".684" stop-color="#1A75BD"/>
      <stop offset=".688" stop-color="#1A74BD"/>
      <stop offset=".691" stop-color="#1A73BD"/>
      <stop offset=".695" stop-color="#1972BC"/>
      <stop offset=".699" stop-color="#1972BC"/>
      <stop offset=".703" stop-color="#1871BC"/>
      <stop offset=".707" stop-color="#1870BC"/>
      <stop offset=".711" stop-color="#1770BB"/>
      <stop offset=".715" stop-color="#176FBB"/>
      <stop offset=".719" stop-color="#176EBB"/>
      <stop offset=".723" stop-color="#166EBA"/>
      <stop offset=".727" stop-color="#166DBA"/>
      <stop offset=".73" stop-color="#156CBA"/>
      <stop offset=".734" stop-color="#156CBA"/>
      <stop offset=".738" stop-color="#146BB9"/>
      <stop offset=".742" stop-color="#146AB9"/>
      <stop offset=".746" stop-color="#146AB9"/>
      <stop offset=".75" stop-color="#1369B9"/>
      <stop offset=".754" stop-color="#1368B8"/>
      <stop offset=".758" stop-color="#1267B8"/>
      <stop offset=".762" stop-color="#1267B8"/>
      <stop offset=".766" stop-color="#1166B8"/>
      <stop offset=".77" stop-color="#1165B7"/>
      <stop offset=".773" stop-color="#1165B7"/>
      <stop offset=".777" stop-color="#1064B7"/>
      <stop offset=".781" stop-color="#1063B7"/>
      <stop offset=".785" stop-color="#0F63B6"/>
      <stop offset=".789" stop-color="#0F62B6"/>
      <stop offset=".793" stop-color="#0E61B6"/>
      <stop offset=".797" stop-color="#0E61B6"/>
      <stop offset=".801" stop-color="#0E60B5"/>
      <stop offset=".805" stop-color="#0D5FB5"/>
      <stop offset=".809" stop-color="#0D5FB5"/>
      <stop offset=".813" stop-color="#0C5EB4"/>
      <stop offset=".816" stop-color="#0C5DB4"/>
      <stop offset=".82" stop-color="#0B5CB4"/>
      <stop offset=".824" stop-color="#0B5CB4"/>
      <stop offset=".828" stop-color="#0B5BB3"/>
      <stop offset=".832" stop-color="#0A5AB3"/>
      <stop offset=".836" stop-color="#0A5AB3"/>
      <stop offset=".84" stop-color="#0959B3"/>
      <stop offset=".844" stop-color="#0958B2"/>
      <stop offset=".848" stop-color="#0858B2"/>
      <stop offset=".852" stop-color="#0857B2"/>
      <stop offset=".855" stop-color="#0856B2"/>
      <stop offset=".859" stop-color="#0756B1"/>
      <stop offset=".863" stop-color="#0755B1"/>
      <stop offset=".867" stop-color="#0654B1"/>
      <stop offset=".871" stop-color="#0653B1"/>
      <stop offset=".875" stop-color="#0553B0"/>
      <stop offset=".879" stop-color="#0552B0"/>
      <stop offset=".883" stop-color="#0551B0"/>
      <stop offset=".887" stop-color="#0451AF"/>
      <stop offset=".891" stop-color="#0450AF"/>
      <stop offset=".895" stop-color="#034FAF"/>
      <stop offset=".898" stop-color="#034FAF"/>
      <stop offset=".902" stop-color="#034EAE"/>
      <stop offset=".906" stop-color="#024DAE"/>
      <stop offset=".91" stop-color="#024DAE"/>
      <stop offset=".914" stop-color="#014CAE"/>
      <stop offset=".918" stop-color="#014BAD"/>
      <stop offset=".922" stop-color="#004BAD"/>
      <stop offset=".938" stop-color="#004AAD"/>
      <stop offset="1" stop-color="#004AAD"/>
    </linearGradient>
  </defs>
</svg>
